<svg width="388" height="398" viewBox="0 0 388 398" fill="none" xmlns="http://www.w3.org/2000/svg">
<g filter="url(#filter0_d_0_1)">
<path d="M362.411 133.352H17.4185C13.8736 133.352 11 136.226 11 139.771V372.173C11 375.718 13.8736 378.591 17.4185 378.591H362.411C365.956 378.591 368.83 375.718 368.83 372.173V139.771C368.83 136.226 365.956 133.352 362.411 133.352Z" fill="white"/>
<path d="M45.4991 164.642H47.1037V166.247H45.4991V164.642ZM45.4991 167.851H47.1037V172.665H45.4991V167.851ZM46.3014 160.631C41.8753 160.631 38.2783 164.225 38.2783 168.654C38.2783 173.082 41.8753 176.677 46.3014 176.677C50.7275 176.677 54.3245 173.082 54.3245 168.654C54.3245 164.225 50.7275 160.631 46.3014 160.631ZM46.3014 175.072C42.7646 175.072 39.8829 172.192 39.8829 168.654C39.8829 165.115 42.7646 162.235 46.3014 162.235C49.8383 162.235 52.7199 165.115 52.7199 168.654C52.7199 172.192 49.8383 175.072 46.3014 175.072Z" fill="#003A40"/>
<path d="M65.2631 167.471C65.2096 167.277 65.1294 167.105 65.0291 166.956C64.9288 166.805 64.8084 166.677 64.6613 166.574C64.5142 166.467 64.3538 166.386 64.1666 166.33C63.9794 166.274 63.7787 166.247 63.5514 166.247C63.1369 166.247 62.7692 166.35 62.4549 166.558C62.1407 166.765 61.8933 167.067 61.7195 167.463C61.5457 167.857 61.4587 168.338 61.4587 168.907C61.4587 169.476 61.5457 169.96 61.7128 170.359C61.8866 170.758 62.134 171.062 62.4482 171.273C62.7692 171.48 63.1369 171.583 63.5715 171.583C63.9593 171.583 64.2936 171.514 64.5744 171.376C64.8485 171.235 65.0624 171.037 65.2095 170.782C65.3566 170.526 65.4302 170.225 65.4302 169.876L65.7845 169.928H63.6785V168.628H67.095V169.657C67.095 170.375 66.9479 170.992 66.6403 171.508C66.3394 172.021 65.9182 172.417 65.3901 172.696C64.8552 172.973 64.2468 173.111 63.5648 173.111C62.7959 173.111 62.1206 172.942 61.5457 172.604C60.964 172.264 60.5093 171.781 60.1884 171.157C59.8675 170.529 59.707 169.784 59.707 168.923C59.707 168.261 59.8007 167.67 59.9946 167.152C60.1885 166.63 60.4559 166.189 60.8035 165.828C61.1512 165.466 61.5591 165.191 62.0204 165.002C62.4884 164.813 62.9899 164.719 63.5247 164.719C63.9861 164.719 64.4206 164.787 64.8218 164.922C65.2162 165.055 65.5706 165.244 65.8781 165.489C66.1923 165.733 66.4464 166.024 66.6403 166.362C66.8409 166.697 66.968 167.067 67.0215 167.471H65.2631ZM68.392 172.999V164.831H70.1237V168.201H73.6271V164.831H75.3521V172.999H73.6271V169.625H70.1237V172.999H68.392ZM82.1917 167.471C82.1316 167.277 82.058 167.105 81.9578 166.956C81.8575 166.805 81.7304 166.677 81.5833 166.574C81.4429 166.467 81.2758 166.386 81.0886 166.33C80.908 166.274 80.7008 166.247 80.4802 166.247C80.059 166.247 79.6979 166.35 79.377 166.558C79.0628 166.765 78.8221 167.067 78.6416 167.463C78.4677 167.857 78.3808 168.338 78.3808 168.907C78.3808 169.476 78.4677 169.96 78.6416 170.359C78.8154 170.758 79.0561 171.062 79.377 171.273C79.6912 171.48 80.0656 171.583 80.4935 171.583C80.888 171.583 81.2223 171.514 81.4964 171.376C81.7772 171.235 81.9912 171.037 82.1316 170.782C82.2854 170.526 82.3589 170.225 82.3589 169.876L82.7066 169.928H80.6005V168.628H84.0237V169.657C84.0237 170.375 83.8699 170.992 83.5691 171.508C83.2615 172.021 82.847 172.417 82.3121 172.696C81.7839 172.973 81.1755 173.111 80.4869 173.111C79.7247 173.111 79.0494 172.942 78.4677 172.604C77.8927 172.264 77.4381 171.781 77.1105 171.157C76.7895 170.529 76.6291 169.784 76.6291 168.923C76.6291 168.261 76.7293 167.67 76.9166 167.152C77.1104 166.63 77.3846 166.189 77.7323 165.828C78.08 165.466 78.4878 165.191 78.9491 165.002C79.4104 164.813 79.9119 164.719 80.4534 164.719C80.9148 164.719 81.3427 164.787 81.7438 164.922C82.145 165.055 82.4993 165.244 82.8069 165.489C83.1144 165.733 83.3685 166.024 83.5691 166.362C83.763 166.697 83.89 167.067 83.9435 167.471H82.1917ZM92.3477 167.18C92.3209 166.858 92.1805 166.608 91.9399 166.43C91.6992 166.251 91.3715 166.162 90.957 166.162C90.6695 166.162 90.4355 166.203 90.2416 166.282C90.0477 166.36 89.8939 166.467 89.7936 166.605C89.6933 166.743 89.6399 166.901 89.6399 167.076C89.6332 167.222 89.6666 167.35 89.7335 167.459C89.8003 167.568 89.894 167.662 90.0143 167.742C90.1347 167.819 90.2751 167.887 90.4288 167.946C90.5893 168.002 90.7564 168.049 90.937 168.089L91.6657 168.265C92.0267 168.345 92.3543 168.451 92.6485 168.584C92.9494 168.717 93.2035 168.88 93.4241 169.074C93.6381 169.269 93.8119 169.497 93.9322 169.76C94.0526 170.024 94.1127 170.326 94.1194 170.666C94.1127 171.166 93.9857 171.599 93.7316 171.967C93.4843 172.331 93.1232 172.614 92.6485 172.816C92.1805 173.016 91.6122 173.115 90.9436 173.115C90.2884 173.115 89.7134 173.014 89.2253 172.812C88.7373 172.61 88.3562 172.311 88.0821 171.914C87.8079 171.515 87.6675 171.022 87.6542 170.435H89.3256C89.3457 170.708 89.4259 170.937 89.5596 171.121C89.7 171.301 89.8872 171.438 90.1212 171.531C90.3619 171.622 90.6294 171.667 90.9236 171.667C91.2178 171.667 91.4718 171.625 91.6858 171.539C91.9064 171.454 92.0735 171.336 92.1938 171.184C92.3142 171.033 92.3744 170.859 92.3744 170.662C92.3744 170.478 92.3209 170.324 92.2072 170.199C92.1069 170.074 91.9465 169.968 91.7392 169.88C91.532 169.792 91.2846 169.713 90.9837 169.641L90.0945 169.417C89.4059 169.25 88.8643 168.988 88.4631 168.632C88.0687 168.275 87.8681 167.795 87.8681 167.191C87.8681 166.697 88.0019 166.265 88.2626 165.896C88.5367 165.526 88.9044 165.237 89.3724 165.03C89.8404 164.823 90.3686 164.719 90.9637 164.719C91.5721 164.719 92.1003 164.823 92.5549 165.03C93.0095 165.237 93.364 165.526 93.6113 165.896C93.8654 166.265 93.9991 166.693 94.0058 167.18H92.3477ZM98.0173 173.119C97.3888 173.119 96.8473 172.986 96.3926 172.72C95.9447 172.451 95.6037 172.08 95.3563 171.603C95.1223 171.127 95.002 170.579 95.002 169.96C95.002 169.332 95.1223 168.782 95.363 168.309C95.6104 167.833 95.9514 167.462 96.406 167.195C96.854 166.927 97.3888 166.793 98.0039 166.793C98.5388 166.793 99.0068 166.89 99.408 167.084C99.8158 167.278 100.13 167.55 100.364 167.901C100.598 168.252 100.725 168.665 100.752 169.138H99.1472C99.1004 168.832 98.9801 168.587 98.7862 168.4C98.599 168.212 98.345 168.117 98.0374 168.117C97.77 168.117 97.5426 168.189 97.342 168.333C97.1481 168.473 97.001 168.68 96.8874 168.951C96.7804 169.222 96.7269 169.55 96.7269 169.936C96.7269 170.327 96.7804 170.659 96.8874 170.933C96.9943 171.207 97.1481 171.416 97.342 171.559C97.5426 171.703 97.77 171.775 98.0374 171.775C98.2313 171.775 98.4051 171.735 98.5588 171.655C98.7126 171.575 98.8464 171.46 98.9467 171.308C99.047 171.154 99.1138 170.969 99.1472 170.754H100.752C100.725 171.222 100.598 171.634 100.371 171.99C100.143 172.344 99.8292 172.62 99.428 172.82C99.0336 173.02 98.5589 173.119 98.0173 173.119ZM104.61 173.119C103.988 173.119 103.453 172.987 102.998 172.724C102.55 172.458 102.203 172.089 101.962 171.616C101.715 171.139 101.594 170.587 101.594 169.96C101.594 169.327 101.715 168.774 101.962 168.301C102.203 167.825 102.55 167.455 102.998 167.191C103.453 166.926 103.988 166.793 104.61 166.793C105.225 166.793 105.76 166.926 106.214 167.191C106.662 167.455 107.01 167.825 107.257 168.301C107.498 168.774 107.625 169.327 107.625 169.96C107.625 170.587 107.498 171.139 107.257 171.616C107.01 172.089 106.662 172.458 106.214 172.724C105.76 172.987 105.225 173.119 104.61 173.119ZM104.616 171.803C104.897 171.803 105.131 171.723 105.318 171.563C105.512 171.401 105.653 171.18 105.746 170.901C105.846 170.622 105.893 170.304 105.893 169.948C105.893 169.592 105.846 169.274 105.746 168.995C105.653 168.715 105.512 168.495 105.318 168.333C105.131 168.17 104.897 168.089 104.616 168.089C104.329 168.089 104.095 168.17 103.894 168.333C103.707 168.495 103.56 168.715 103.46 168.995C103.366 169.274 103.319 169.592 103.319 169.948C103.319 170.304 103.366 170.622 103.46 170.901C103.56 171.18 103.707 171.401 103.894 171.563C104.095 171.723 104.329 171.803 104.616 171.803ZM108.728 175.297V166.873H110.406V167.901H110.48C110.553 167.737 110.66 167.569 110.801 167.399C110.948 167.226 111.135 167.082 111.362 166.968C111.59 166.851 111.877 166.793 112.225 166.793C112.666 166.793 113.081 166.91 113.462 167.144C113.836 167.375 114.137 167.725 114.364 168.193C114.592 168.658 114.705 169.242 114.705 169.944C114.705 170.627 114.592 171.204 114.371 171.675C114.157 172.143 113.856 172.498 113.482 172.74C113.101 172.979 112.686 173.099 112.218 173.099C111.891 173.099 111.61 173.044 111.376 172.935C111.148 172.826 110.961 172.689 110.814 172.525C110.667 172.357 110.553 172.189 110.48 172.018H110.426V175.297H108.728ZM110.393 169.936C110.393 170.3 110.44 170.618 110.54 170.889C110.647 171.161 110.787 171.372 110.981 171.523C111.175 171.672 111.402 171.747 111.677 171.747C111.957 171.747 112.191 171.671 112.379 171.519C112.573 171.365 112.72 171.153 112.813 170.881C112.92 170.607 112.967 170.292 112.967 169.936C112.967 169.582 112.92 169.271 112.82 169.003C112.72 168.734 112.579 168.524 112.385 168.372C112.191 168.221 111.957 168.145 111.677 168.145C111.402 168.145 111.169 168.218 110.975 168.364C110.787 168.511 110.647 168.718 110.54 168.987C110.44 169.255 110.393 169.572 110.393 169.936ZM118.63 173.119C117.995 173.119 117.453 172.991 116.999 172.736C116.551 172.478 116.203 172.114 115.956 171.643C115.708 171.17 115.588 170.61 115.588 169.964C115.588 169.334 115.708 168.781 115.956 168.305C116.203 167.829 116.544 167.458 116.992 167.191C117.433 166.926 117.961 166.793 118.563 166.793C118.964 166.793 119.339 166.858 119.686 166.988C120.041 167.116 120.348 167.308 120.609 167.567C120.87 167.825 121.077 168.149 121.217 168.54C121.364 168.928 121.438 169.383 121.438 169.904V170.371H116.27V169.318H119.84C119.84 169.073 119.787 168.856 119.68 168.668C119.573 168.478 119.426 168.331 119.238 168.225C119.051 168.116 118.837 168.061 118.59 168.061C118.329 168.061 118.102 168.121 117.901 168.24C117.707 168.357 117.554 168.516 117.44 168.715C117.326 168.912 117.273 169.132 117.266 169.374V170.375C117.266 170.678 117.326 170.94 117.433 171.161C117.547 171.382 117.707 171.551 117.921 171.671C118.129 171.791 118.369 171.851 118.657 171.851C118.844 171.851 119.018 171.824 119.172 171.771C119.332 171.718 119.466 171.638 119.579 171.531C119.686 171.425 119.773 171.295 119.833 171.141L121.405 171.244C121.324 171.622 121.164 171.952 120.917 172.233C120.669 172.513 120.355 172.731 119.967 172.888C119.579 173.042 119.131 173.119 118.63 173.119ZM128.686 164.831V172.999H126.961V166.47H126.914L125.042 167.643V166.111L127.061 164.831H128.686ZM133.279 172.999V164.831H138.781V166.254H135.004V168.201H138.494V169.625H135.004V171.575H138.795V172.999H133.279ZM140.118 172.999V166.873H141.743V167.954H141.81C141.937 167.595 142.151 167.311 142.452 167.104C142.746 166.897 143.107 166.793 143.522 166.793C143.943 166.793 144.297 166.898 144.591 167.108C144.886 167.315 145.086 167.597 145.186 167.954H145.247C145.374 167.603 145.601 167.322 145.922 167.112C146.256 166.899 146.644 166.793 147.092 166.793C147.667 166.793 148.128 166.975 148.483 167.339C148.844 167.701 149.024 168.214 149.024 168.879V172.999H147.326V169.214C147.326 168.874 147.239 168.618 147.058 168.448C146.878 168.278 146.651 168.193 146.376 168.193C146.069 168.193 145.828 168.291 145.661 168.488C145.487 168.682 145.4 168.939 145.4 169.258V172.999H143.749V169.178C143.749 168.878 143.662 168.638 143.495 168.46C143.321 168.282 143.094 168.193 142.82 168.193C142.626 168.193 142.459 168.24 142.305 168.337C142.158 168.43 142.037 168.561 141.95 168.731C141.863 168.899 141.823 169.096 141.823 169.322V172.999H140.118ZM150.368 172.999V166.873H152.066V172.999H150.368ZM151.217 166.083C150.97 166.083 150.749 165.999 150.569 165.832C150.395 165.662 150.301 165.458 150.301 165.221C150.301 164.987 150.395 164.787 150.569 164.619C150.749 164.449 150.97 164.364 151.217 164.364C151.471 164.364 151.685 164.449 151.866 164.619C152.046 164.787 152.14 164.987 152.14 165.221C152.14 165.458 152.046 165.662 151.866 165.832C151.685 165.999 151.471 166.083 151.217 166.083ZM158.525 168.62L156.967 168.715C156.94 168.583 156.887 168.463 156.8 168.356C156.713 168.247 156.593 168.161 156.452 168.097C156.312 168.031 156.138 167.998 155.944 167.998C155.683 167.998 155.456 168.053 155.275 168.165C155.095 168.274 155.008 168.42 155.008 168.604C155.008 168.75 155.068 168.874 155.182 168.975C155.302 169.076 155.503 169.157 155.784 169.218L156.893 169.441C157.488 169.564 157.93 169.76 158.224 170.032C158.518 170.303 158.665 170.659 158.665 171.101C158.665 171.503 158.545 171.855 158.311 172.158C158.077 172.461 157.756 172.697 157.341 172.868C156.94 173.035 156.466 173.119 155.937 173.119C155.122 173.119 154.48 172.95 153.998 172.612C153.517 172.272 153.236 171.809 153.156 171.224L154.827 171.137C154.874 171.384 155.001 171.573 155.195 171.703C155.389 171.831 155.636 171.894 155.937 171.894C156.238 171.894 156.479 171.837 156.659 171.723C156.84 171.606 156.934 171.456 156.94 171.273C156.934 171.118 156.867 170.992 156.74 170.893C156.613 170.792 156.419 170.715 156.151 170.662L155.088 170.451C154.493 170.331 154.045 170.123 153.751 169.828C153.464 169.533 153.316 169.157 153.316 168.7C153.316 168.306 153.423 167.967 153.637 167.682C153.851 167.398 154.152 167.179 154.547 167.024C154.934 166.87 155.389 166.793 155.917 166.793C156.693 166.793 157.301 166.956 157.743 167.284C158.19 167.611 158.451 168.056 158.525 168.62ZM164.83 168.62L163.278 168.715C163.252 168.583 163.192 168.463 163.105 168.356C163.018 168.247 162.904 168.161 162.757 168.097C162.617 168.031 162.449 167.998 162.249 167.998C161.988 167.998 161.767 168.053 161.587 168.165C161.406 168.274 161.313 168.42 161.313 168.604C161.313 168.75 161.373 168.874 161.487 168.975C161.607 169.076 161.808 169.157 162.088 169.218L163.198 169.441C163.793 169.564 164.241 169.76 164.535 170.032C164.823 170.303 164.97 170.659 164.97 171.101C164.97 171.503 164.856 171.855 164.616 172.158C164.382 172.461 164.061 172.697 163.653 172.868C163.245 173.035 162.777 173.119 162.242 173.119C161.433 173.119 160.785 172.95 160.303 172.612C159.829 172.272 159.548 171.809 159.461 171.224L161.132 171.137C161.186 171.384 161.306 171.573 161.5 171.703C161.694 171.831 161.941 171.894 162.249 171.894C162.543 171.894 162.784 171.837 162.964 171.723C163.151 171.606 163.238 171.456 163.245 171.273C163.238 171.118 163.178 170.992 163.051 170.893C162.924 170.792 162.724 170.715 162.456 170.662L161.4 170.451C160.798 170.331 160.357 170.123 160.063 169.828C159.768 169.533 159.628 169.157 159.628 168.7C159.628 168.306 159.735 167.967 159.942 167.682C160.163 167.398 160.464 167.179 160.851 167.024C161.239 166.87 161.701 166.793 162.222 166.793C162.998 166.793 163.606 166.956 164.047 167.284C164.495 167.611 164.756 168.056 164.83 168.62ZM166.04 172.999V166.873H167.738V172.999H166.04ZM166.896 166.083C166.642 166.083 166.427 165.999 166.247 165.832C166.066 165.662 165.98 165.458 165.98 165.221C165.98 164.987 166.066 164.787 166.247 164.619C166.427 164.449 166.642 164.364 166.896 164.364C167.15 164.364 167.364 164.449 167.544 164.619C167.725 164.787 167.812 164.987 167.812 165.221C167.812 165.458 167.725 165.662 167.544 165.832C167.364 165.999 167.15 166.083 166.896 166.083ZM171.87 173.119C171.248 173.119 170.713 172.987 170.265 172.724C169.811 172.458 169.463 172.089 169.222 171.616C168.975 171.139 168.854 170.587 168.854 169.96C168.854 169.327 168.975 168.774 169.222 168.301C169.463 167.825 169.811 167.455 170.265 167.191C170.713 166.926 171.248 166.793 171.87 166.793C172.492 166.793 173.027 166.926 173.474 167.191C173.922 167.455 174.277 167.825 174.517 168.301C174.765 168.774 174.885 169.327 174.885 169.96C174.885 170.587 174.765 171.139 174.517 171.616C174.277 172.089 173.922 172.458 173.474 172.724C173.027 172.987 172.492 173.119 171.87 173.119ZM171.877 171.803C172.157 171.803 172.398 171.723 172.585 171.563C172.772 171.401 172.913 171.18 173.013 170.901C173.107 170.622 173.16 170.304 173.16 169.948C173.16 169.592 173.107 169.274 173.013 168.995C172.913 168.715 172.772 168.495 172.585 168.333C172.398 168.17 172.157 168.089 171.877 168.089C171.596 168.089 171.355 168.17 171.161 168.333C170.967 168.495 170.82 168.715 170.727 168.995C170.626 169.274 170.58 169.592 170.58 169.948C170.58 170.304 170.626 170.622 170.727 170.901C170.82 171.18 170.967 171.401 171.161 171.563C171.355 171.723 171.596 171.803 171.877 171.803ZM177.687 169.457V172.999H175.988V166.873H177.606V167.954H177.68C177.82 167.597 178.048 167.315 178.362 167.108C178.683 166.898 179.071 166.793 179.525 166.793C179.946 166.793 180.321 166.886 180.635 167.072C180.956 167.258 181.197 167.524 181.377 167.87C181.551 168.213 181.638 168.622 181.638 169.098V172.999H179.94V169.402C179.94 169.027 179.846 168.734 179.652 168.524C179.458 168.311 179.191 168.205 178.85 168.205C178.623 168.205 178.422 168.254 178.242 168.353C178.074 168.451 177.934 168.594 177.84 168.783C177.74 168.969 177.693 169.194 177.687 169.457ZM188.076 168.62L186.519 168.715C186.492 168.583 186.438 168.463 186.345 168.356C186.258 168.247 186.144 168.161 186.004 168.097C185.857 168.031 185.69 167.998 185.496 167.998C185.228 167.998 185.008 168.053 184.827 168.165C184.647 168.274 184.56 168.42 184.56 168.604C184.56 168.75 184.613 168.874 184.734 168.975C184.847 169.076 185.048 169.157 185.335 169.218L186.445 169.441C187.04 169.564 187.481 169.76 187.776 170.032C188.07 170.303 188.217 170.659 188.217 171.101C188.217 171.503 188.097 171.855 187.863 172.158C187.629 172.461 187.301 172.697 186.893 172.868C186.485 173.035 186.017 173.119 185.489 173.119C184.673 173.119 184.031 172.95 183.55 172.612C183.069 172.272 182.788 171.809 182.708 171.224L184.379 171.137C184.426 171.384 184.553 171.573 184.747 171.703C184.941 171.831 185.188 171.894 185.489 171.894C185.79 171.894 186.031 171.837 186.211 171.723C186.392 171.606 186.485 171.456 186.485 171.273C186.485 171.118 186.418 170.992 186.291 170.893C186.164 170.792 185.97 170.715 185.703 170.662L184.64 170.451C184.045 170.331 183.597 170.123 183.303 169.828C183.015 169.533 182.868 169.157 182.868 168.7C182.868 168.306 182.975 167.967 183.189 167.682C183.403 167.398 183.704 167.179 184.092 167.024C184.486 166.87 184.941 166.793 185.469 166.793C186.238 166.793 186.846 166.956 187.294 167.284C187.742 167.611 188.003 168.056 188.076 168.62Z" fill="#003A40"/>
<path d="M37.463 216.658V215.765L40.2243 212.901C40.5185 212.59 40.7659 212.317 40.9531 212.083C41.147 211.847 41.294 211.622 41.3876 211.409C41.4879 211.197 41.5348 210.971 41.5348 210.731C41.5348 210.46 41.4679 210.226 41.3409 210.029C41.2138 209.829 41.04 209.677 40.8194 209.571C40.5987 209.462 40.3513 209.407 40.0705 209.407C39.783 209.407 39.5223 209.467 39.3083 209.587C39.0877 209.706 38.9205 209.875 38.8069 210.093C38.6865 210.311 38.6264 210.566 38.6264 210.859H37.4497C37.4497 210.362 37.5633 209.927 37.7973 209.555C38.0246 209.182 38.3389 208.893 38.7333 208.689C39.1345 208.482 39.5892 208.378 40.0973 208.378C40.6121 208.378 41.0601 208.48 41.4546 208.685C41.849 208.887 42.1566 209.164 42.3772 209.515C42.5979 209.863 42.7048 210.257 42.7048 210.695C42.7048 210.998 42.6513 211.295 42.531 211.585C42.424 211.875 42.2234 212.198 41.9493 212.554C41.6685 212.908 41.2807 213.337 40.786 213.842L39.1613 215.542V215.601H42.8385V216.658H37.463ZM47.191 216.794C46.5626 216.792 46.021 216.625 45.5797 216.295C45.1318 215.966 44.7908 215.486 44.5501 214.856C44.3161 214.225 44.1958 213.466 44.1958 212.578C44.1958 211.693 44.3161 210.936 44.5501 210.308C44.7908 209.681 45.1318 209.202 45.5797 208.873C46.0277 208.542 46.5693 208.378 47.191 208.378C47.8195 208.378 48.3544 208.544 48.8024 208.877C49.2436 209.206 49.5912 209.685 49.8253 210.312C50.0659 210.937 50.1863 211.693 50.1863 212.578C50.1863 213.469 50.066 214.229 49.8319 214.859C49.5913 215.487 49.2503 215.967 48.8024 216.299C48.3544 216.629 47.8195 216.794 47.191 216.794ZM47.191 215.729C47.746 215.729 48.1805 215.459 48.4881 214.919C48.8023 214.38 48.9628 213.599 48.9628 212.578C48.9628 211.9 48.8892 211.327 48.7421 210.859C48.6017 210.388 48.4012 210.032 48.1338 209.79C47.873 209.545 47.5588 209.423 47.191 209.423C46.6428 209.423 46.2082 209.694 45.8939 210.237C45.5797 210.779 45.4259 211.56 45.4193 212.578C45.4193 213.259 45.4928 213.834 45.6333 214.305C45.7737 214.773 45.9809 215.128 46.2416 215.37C46.509 215.609 46.8233 215.729 47.191 215.729ZM51.597 216.658V215.765L54.365 212.901C54.6592 212.59 54.8999 212.317 55.0938 212.083C55.2876 211.847 55.4347 211.622 55.5284 211.409C55.622 211.197 55.6688 210.971 55.6688 210.731C55.6688 210.46 55.6086 210.226 55.4816 210.029C55.3546 209.829 55.1807 209.677 54.9601 209.571C54.7394 209.462 54.4854 209.407 54.2112 209.407C53.9171 209.407 53.663 209.467 53.449 209.587C53.2284 209.706 53.0613 209.875 52.9409 210.093C52.8272 210.311 52.7671 210.566 52.7671 210.859H51.5903C51.5903 210.362 51.704 209.927 51.9313 209.555C52.1653 209.182 52.4796 208.893 52.8741 208.689C53.2752 208.482 53.7299 208.378 54.238 208.378C54.7461 208.378 55.2007 208.48 55.5952 208.685C55.983 208.887 56.2905 209.164 56.5112 209.515C56.7318 209.863 56.8455 210.257 56.8455 210.695C56.8455 210.998 56.7854 211.295 56.6717 211.585C56.558 211.875 56.3641 212.198 56.0833 212.554C55.8092 212.908 55.4214 213.337 54.9199 213.842L53.2953 215.542V215.601H56.9792V216.658H51.597ZM58.4902 216.658V215.765L61.2515 212.901C61.5457 212.59 61.7931 212.317 61.9803 212.083C62.1742 211.847 62.3213 211.622 62.4149 211.409C62.5152 211.197 62.5619 210.971 62.5619 210.731C62.5619 210.46 62.4951 210.226 62.368 210.029C62.241 209.829 62.0672 209.677 61.8466 209.571C61.6259 209.462 61.3786 209.407 61.0978 209.407C60.8103 209.407 60.5495 209.467 60.3356 209.587C60.1149 209.706 59.9478 209.875 59.8341 210.093C59.7138 210.311 59.6536 210.566 59.6536 210.859H58.4769C58.4769 210.362 58.5972 209.927 58.8245 209.555C59.0519 209.182 59.366 208.893 59.7672 208.689C60.1617 208.482 60.6163 208.378 61.1245 208.378C61.6393 208.378 62.0872 208.48 62.4817 208.685C62.8762 208.887 63.1837 209.164 63.4044 209.515C63.625 209.863 63.732 210.257 63.732 210.695C63.732 210.998 63.6785 211.295 63.5648 211.585C63.4512 211.875 63.2573 212.198 62.9765 212.554C62.6957 212.908 62.3079 213.337 61.8131 213.842L60.1884 215.542V215.601H63.8657V216.658H58.4902Z" fill="#003A40"/>
<path d="M37.463 246.21V245.317L40.2243 242.453C40.5185 242.142 40.7659 241.869 40.9531 241.635C41.147 241.398 41.294 241.174 41.3876 240.961C41.4879 240.748 41.5348 240.522 41.5348 240.283C41.5348 240.012 41.4679 239.778 41.3409 239.581C41.2138 239.381 41.04 239.229 40.8194 239.122C40.5987 239.013 40.3513 238.959 40.0705 238.959C39.783 238.959 39.5223 239.019 39.3083 239.138C39.0877 239.258 38.9205 239.427 38.8069 239.645C38.6865 239.863 38.6264 240.118 38.6264 240.411H37.4497C37.4497 239.913 37.5633 239.479 37.7973 239.106C38.0246 238.734 38.3389 238.445 38.7333 238.241C39.1345 238.033 39.5892 237.93 40.0973 237.93C40.6121 237.93 41.0601 238.032 41.4546 238.237C41.849 238.439 42.1566 238.715 42.3772 239.066C42.5979 239.415 42.7048 239.808 42.7048 240.247C42.7048 240.55 42.6513 240.847 42.531 241.136C42.424 241.426 42.2234 241.749 41.9493 242.106C41.6685 242.459 41.2807 242.889 40.786 243.394L39.1613 245.094V245.153H42.8385V246.21H37.463ZM47.191 246.346C46.5626 246.343 46.021 246.177 45.5797 245.847C45.1318 245.518 44.7908 245.038 44.5501 244.407C44.3161 243.777 44.1958 243.018 44.1958 242.13C44.1958 241.244 44.3161 240.488 44.5501 239.86C44.7908 239.233 45.1318 238.754 45.5797 238.424C46.0277 238.094 46.5693 237.93 47.191 237.93C47.8195 237.93 48.3544 238.096 48.8024 238.428C49.2436 238.758 49.5912 239.237 49.8253 239.864C50.0659 240.489 50.1863 241.244 50.1863 242.13C50.1863 243.02 50.066 243.781 49.8319 244.411C49.5913 245.039 49.2503 245.519 48.8024 245.851C48.3544 246.181 47.8195 246.346 47.191 246.346ZM47.191 245.281C47.746 245.281 48.1805 245.011 48.4881 244.471C48.8023 243.932 48.9628 243.151 48.9628 242.13C48.9628 241.452 48.8892 240.879 48.7421 240.411C48.6017 239.94 48.4012 239.584 48.1338 239.342C47.873 239.097 47.5588 238.975 47.191 238.975C46.6428 238.975 46.2082 239.246 45.8939 239.788C45.5797 240.331 45.4259 241.112 45.4193 242.13C45.4193 242.81 45.4928 243.386 45.6333 243.857C45.7737 244.325 45.9809 244.68 46.2416 244.922C46.509 245.161 46.8233 245.281 47.191 245.281ZM51.597 246.21V245.317L54.365 242.453C54.6592 242.142 54.8999 241.869 55.0938 241.635C55.2876 241.398 55.4347 241.174 55.5284 240.961C55.622 240.748 55.6688 240.522 55.6688 240.283C55.6688 240.012 55.6086 239.778 55.4816 239.581C55.3546 239.381 55.1807 239.229 54.9601 239.122C54.7394 239.013 54.4854 238.959 54.2112 238.959C53.9171 238.959 53.663 239.019 53.449 239.138C53.2284 239.258 53.0613 239.427 52.9409 239.645C52.8272 239.863 52.7671 240.118 52.7671 240.411H51.5903C51.5903 239.913 51.704 239.479 51.9313 239.106C52.1653 238.734 52.4796 238.445 52.8741 238.241C53.2752 238.033 53.7299 237.93 54.238 237.93C54.7461 237.93 55.2007 238.032 55.5952 238.237C55.983 238.439 56.2905 238.715 56.5112 239.066C56.7318 239.415 56.8455 239.808 56.8455 240.247C56.8455 240.55 56.7854 240.847 56.6717 241.136C56.558 241.426 56.3641 241.749 56.0833 242.106C55.8092 242.459 55.4214 242.889 54.9199 243.394L53.2953 245.094V245.153H56.9792V246.21H51.597ZM61.5858 238.041V246.21H60.3489V239.278H60.3021L58.3498 240.554V239.373L60.389 238.041H61.5858Z" fill="#003A40"/>
<path d="M37.463 275.762V274.869L40.2243 272.004C40.5185 271.694 40.7659 271.421 40.9531 271.187C41.147 270.95 41.294 270.725 41.3876 270.513C41.4879 270.3 41.5348 270.074 41.5348 269.835C41.5348 269.563 41.4679 269.329 41.3409 269.133C41.2138 268.933 41.04 268.78 40.8193 268.674C40.5987 268.565 40.3513 268.51 40.0705 268.51C39.783 268.51 39.5223 268.57 39.3083 268.69C39.0877 268.809 38.9205 268.978 38.8069 269.196C38.6865 269.414 38.6264 269.67 38.6264 269.963H37.4497C37.4497 269.465 37.5633 269.031 37.7973 268.658C38.0246 268.286 38.3389 267.997 38.7333 267.792C39.1345 267.585 39.5892 267.481 40.0973 267.481C40.6121 267.481 41.0601 267.584 41.4546 267.788C41.849 267.99 42.1566 268.267 42.3772 268.618C42.5979 268.966 42.7048 269.36 42.7048 269.799C42.7048 270.102 42.6513 270.398 42.531 270.688C42.424 270.978 42.2234 271.301 41.9493 271.657C41.6685 272.011 41.2807 272.44 40.786 272.946L39.1613 274.645V274.705H42.8385V275.762H37.463ZM47.191 275.898C46.5626 275.895 46.021 275.728 45.5797 275.399C45.1318 275.069 44.7908 274.589 44.5501 273.959C44.3161 273.329 44.1958 272.569 44.1958 271.681C44.1958 270.796 44.3161 270.039 44.5501 269.412C44.7908 268.785 45.1318 268.306 45.5797 267.976C46.0277 267.646 46.5693 267.481 47.191 267.481C47.8195 267.481 48.3544 267.647 48.8024 267.98C49.2436 268.31 49.5912 268.789 49.8252 269.416C50.0659 270.041 50.1863 270.796 50.1863 271.681C50.1863 272.572 50.0659 273.333 49.8319 273.963C49.5912 274.591 49.2503 275.071 48.8024 275.403C48.3544 275.733 47.8195 275.898 47.191 275.898ZM47.191 274.833C47.746 274.833 48.1805 274.562 48.4881 274.023C48.8023 273.483 48.9628 272.702 48.9628 271.681C48.9628 271.004 48.8892 270.431 48.7421 269.963C48.6017 269.492 48.4012 269.136 48.1338 268.893C47.873 268.649 47.5588 268.526 47.191 268.526C46.6428 268.526 46.2082 268.798 45.8939 269.34C45.5797 269.882 45.4259 270.663 45.4193 271.681C45.4193 272.362 45.4928 272.938 45.6333 273.408C45.7737 273.876 45.9809 274.232 46.2416 274.474C46.509 274.713 46.8233 274.833 47.191 274.833ZM51.597 275.762V274.869L54.365 272.004C54.6592 271.694 54.8999 271.421 55.0938 271.187C55.2876 270.95 55.4347 270.725 55.5283 270.513C55.622 270.3 55.6688 270.074 55.6688 269.835C55.6688 269.563 55.6086 269.329 55.4816 269.133C55.3546 268.933 55.1807 268.78 54.9601 268.674C54.7394 268.565 54.4854 268.51 54.2112 268.51C53.9171 268.51 53.663 268.57 53.449 268.69C53.2284 268.809 53.0613 268.978 52.9409 269.196C52.8272 269.414 52.7671 269.67 52.7671 269.963H51.5903C51.5903 269.465 51.704 269.031 51.9313 268.658C52.1653 268.286 52.4796 267.997 52.8741 267.792C53.2752 267.585 53.7299 267.481 54.238 267.481C54.7461 267.481 55.2007 267.584 55.5952 267.788C55.983 267.99 56.2905 268.267 56.5112 268.618C56.7318 268.966 56.8455 269.36 56.8455 269.799C56.8455 270.102 56.7854 270.398 56.6717 270.688C56.558 270.978 56.3641 271.301 56.0833 271.657C55.8092 272.011 55.4214 272.44 54.9199 272.946L53.2953 274.645V274.705H56.9792V275.762H51.597ZM61.3318 275.898C60.7033 275.895 60.1617 275.728 59.7137 275.399C59.2725 275.069 58.9248 274.589 58.6908 273.959C58.4568 273.329 58.3365 272.569 58.3365 271.681C58.3365 270.796 58.4568 270.039 58.6908 269.412C58.9315 268.785 59.2725 268.306 59.7204 267.976C60.1684 267.646 60.71 267.481 61.3318 267.481C61.9535 267.481 62.4951 267.647 62.9364 267.98C63.3843 268.31 63.7253 268.789 63.966 269.416C64.2067 270.041 64.3203 270.796 64.3203 271.681C64.3203 272.572 64.2067 273.333 63.966 273.963C63.732 274.591 63.391 275.071 62.943 275.403C62.495 275.733 61.9602 275.898 61.3318 275.898ZM61.3318 274.833C61.8867 274.833 62.3145 274.562 62.6288 274.023C62.943 273.483 63.0968 272.702 63.0968 271.681C63.0968 271.004 63.0299 270.431 62.8828 269.963C62.7424 269.492 62.5418 269.136 62.2744 268.893C62.007 268.649 61.6995 268.526 61.3318 268.526C60.7835 268.526 60.3489 268.798 60.0346 269.34C59.7204 269.882 59.5667 270.663 59.56 271.681C59.56 272.362 59.6335 272.938 59.7739 273.408C59.9143 273.876 60.1216 274.232 60.3823 274.474C60.6431 274.713 60.964 274.833 61.3318 274.833Z" fill="#003A40"/>
<path d="M37.463 305.314V304.42L40.2243 301.556C40.5185 301.245 40.7659 300.972 40.9531 300.738C41.147 300.502 41.294 300.277 41.3876 300.065C41.4879 299.852 41.5348 299.626 41.5348 299.387C41.5348 299.115 41.4679 298.881 41.3409 298.685C41.2138 298.485 41.04 298.332 40.8194 298.226C40.5987 298.116 40.3513 298.062 40.0705 298.062C39.783 298.062 39.5223 298.122 39.3083 298.241C39.0877 298.361 38.9205 298.53 38.8069 298.748C38.6865 298.966 38.6264 299.221 38.6264 299.514H37.4497C37.4497 299.017 37.5633 298.582 37.7973 298.21C38.0246 297.837 38.3389 297.549 38.7333 297.344C39.1345 297.137 39.5892 297.033 40.0973 297.033C40.6121 297.033 41.0601 297.135 41.4546 297.34C41.849 297.542 42.1566 297.819 42.3772 298.17C42.5979 298.518 42.7048 298.912 42.7048 299.35C42.7048 299.653 42.6513 299.95 42.531 300.24C42.424 300.53 42.2234 300.853 41.9493 301.209C41.6685 301.563 41.2807 301.992 40.786 302.498L39.1613 304.196V304.257H42.8385V305.314H37.463ZM47.191 305.449C46.5626 305.447 46.021 305.28 45.5797 304.951C45.1318 304.621 44.7908 304.141 44.5501 303.51C44.3161 302.881 44.1958 302.121 44.1958 301.233C44.1958 300.347 44.3161 299.591 44.5501 298.963C44.7908 298.336 45.1318 297.858 45.5797 297.527C46.0277 297.198 46.5693 297.033 47.191 297.033C47.8195 297.033 48.3544 297.199 48.8024 297.531C49.2436 297.862 49.5912 298.34 49.8253 298.967C50.0659 299.592 50.1863 300.347 50.1863 301.233C50.1863 302.124 50.066 302.885 49.8319 303.514C49.5913 304.142 49.2503 304.622 48.8024 304.955C48.3544 305.284 47.8195 305.449 47.191 305.449ZM47.191 304.384C47.746 304.384 48.1805 304.114 48.4881 303.575C48.8023 303.034 48.9628 302.254 48.9628 301.233C48.9628 300.555 48.8892 299.982 48.7421 299.514C48.6017 299.044 48.4012 298.687 48.1338 298.445C47.873 298.2 47.5588 298.078 47.191 298.078C46.6428 298.078 46.2082 298.349 45.8939 298.892C45.5797 299.434 45.4259 300.215 45.4193 301.233C45.4193 301.914 45.4928 302.489 45.6333 302.96C45.7737 303.428 45.9809 303.783 46.2416 304.025C46.509 304.265 46.8233 304.384 47.191 304.384ZM54.6993 297.145V305.314H53.4624V298.381H53.4156L51.4567 299.657V298.477L53.4959 297.145H54.6993ZM59.6268 297.033C59.9879 297.036 60.3489 297.102 60.7032 297.232C61.0576 297.363 61.3719 297.575 61.6594 297.871C61.9469 298.166 62.1742 298.565 62.348 299.067C62.5152 299.567 62.6087 300.19 62.6087 300.934C62.6087 301.649 62.5352 302.286 62.3948 302.845C62.2477 303.4 62.0404 303.869 61.773 304.253C61.5055 304.636 61.1846 304.927 60.8035 305.126C60.4224 305.326 59.9945 305.425 59.5198 305.425C59.0317 305.425 58.6039 305.33 58.2228 305.138C57.8484 304.947 57.5408 304.682 57.3001 304.344C57.0661 304.004 56.919 303.613 56.8588 303.171H58.0757C58.156 303.522 58.3164 303.807 58.5638 304.025C58.8112 304.241 59.132 304.348 59.5198 304.348C60.1216 304.348 60.5829 304.087 60.9239 303.567C61.2582 303.042 61.4254 302.312 61.4254 301.373H61.3651C61.2247 301.602 61.051 301.798 60.8437 301.963C60.6431 302.128 60.4091 302.255 60.155 302.346C59.901 302.437 59.6269 302.481 59.3394 302.481C58.8647 302.481 58.4367 302.366 58.0556 302.134C57.6679 301.903 57.3603 301.586 57.133 301.181C56.9057 300.777 56.7853 300.316 56.7853 299.797C56.7853 299.282 56.9057 298.814 57.1397 298.393C57.3737 297.973 57.708 297.641 58.1292 297.396C58.5571 297.149 59.0518 297.028 59.6268 297.033ZM59.6268 298.07C59.3193 298.07 59.0385 298.147 58.7844 298.301C58.537 298.453 58.3431 298.659 58.2027 298.92C58.0556 299.177 57.9821 299.465 57.9821 299.781C57.9821 300.098 58.0556 300.385 58.1893 300.643C58.3364 300.898 58.5236 301.102 58.7643 301.253C59.0117 301.402 59.2925 301.477 59.6067 301.477C59.8407 301.477 60.0548 301.431 60.262 301.341C60.4626 301.251 60.6364 301.126 60.7902 300.966C60.9439 300.803 61.0576 300.62 61.1445 300.416C61.2314 300.211 61.2715 299.995 61.2715 299.769C61.2715 299.469 61.198 299.189 61.0576 298.931C60.9172 298.674 60.7233 298.466 60.4759 298.309C60.2286 298.15 59.9477 298.07 59.6268 298.07Z" fill="#003A40"/>
<path d="M84.6787 197.537H65.4233V228.025H84.6787V197.537Z" fill="white"/>
<path d="M84.2773 320.29V197.537" stroke="#DAE9E6" stroke-width="0.802309"/>
<path d="M84.6787 203.955H253.164C255.825 203.955 257.978 206.111 257.978 208.769V218.397C257.978 221.056 255.825 223.211 253.164 223.211H84.6787V203.955Z" fill="#23C983"/>
<path d="M84.6787 234.176H266.001C268.662 234.176 270.814 236.331 270.814 238.989V248.617C270.814 251.275 268.662 253.431 266.001 253.431H84.6787V234.176Z" fill="#23C983"/>
<path d="M84.6787 264.396H308.523C311.184 264.396 313.337 266.551 313.337 269.21V278.837C313.337 281.496 311.184 283.651 308.523 283.651H84.6787V264.396Z" fill="#23C983"/>
<path d="M84.6787 294.616H325.371C328.032 294.616 330.185 296.772 330.185 299.43V309.058C330.185 311.716 328.032 313.872 325.371 313.872H84.6787V294.616Z" fill="#23C983"/>
<path d="M37.4429 349.574V342.572H39.9367C40.4849 342.572 40.9329 342.666 41.2873 342.852C41.6483 343.04 41.9157 343.298 42.0962 343.629C42.2768 343.957 42.3637 344.337 42.3637 344.767C42.3637 345.196 42.2701 345.573 42.0962 345.899C41.9157 346.223 41.6483 346.475 41.2873 346.655C40.9262 346.834 40.4783 346.925 39.9367 346.925H38.0445V346.015H39.8431C40.1841 346.015 40.4582 345.966 40.6721 345.868C40.8928 345.77 41.0465 345.628 41.1468 345.441C41.2471 345.254 41.3006 345.029 41.3006 344.767C41.3006 344.503 41.2471 344.274 41.1468 344.08C41.0465 343.887 40.8861 343.738 40.6721 343.636C40.4582 343.531 40.1774 343.478 39.8297 343.478H38.4992V349.574H37.4429ZM40.8994 346.415L42.6311 349.574H41.4276L39.7294 346.415H40.8994ZM45.7668 349.68C45.2453 349.68 44.804 349.57 44.4296 349.348C44.0552 349.125 43.7677 348.812 43.5671 348.408C43.3665 348.003 43.2663 347.528 43.2663 346.983C43.2663 346.445 43.3665 345.971 43.5671 345.56C43.7677 345.15 44.0485 344.83 44.4162 344.6C44.7773 344.369 45.2052 344.254 45.6933 344.254C45.9874 344.254 46.275 344.303 46.5558 344.401C46.8299 344.5 47.084 344.654 47.3046 344.863C47.5252 345.073 47.699 345.345 47.826 345.68C47.9531 346.013 48.0199 346.417 48.0199 346.894V347.256H43.8413V346.49H47.0171C47.0171 346.221 46.9636 345.983 46.8499 345.776C46.7429 345.566 46.5892 345.401 46.3886 345.28C46.1947 345.159 45.9607 345.099 45.7 345.099C45.4125 345.099 45.1584 345.17 44.9444 345.311C44.7372 345.45 44.57 345.632 44.4564 345.858C44.3427 346.081 44.2825 346.324 44.2825 346.586V347.184C44.2825 347.535 44.3427 347.834 44.4698 348.08C44.5968 348.326 44.7706 348.515 44.9912 348.644C45.2118 348.772 45.4793 348.836 45.7735 348.836C45.9674 348.836 46.1479 348.808 46.3017 348.754C46.4622 348.696 46.6026 348.612 46.7162 348.501C46.8366 348.389 46.9234 348.251 46.9836 348.087L47.9531 348.261C47.8729 348.546 47.7392 348.796 47.5386 349.01C47.338 349.222 47.0906 349.387 46.7898 349.506C46.4889 349.622 46.1479 349.68 45.7668 349.68ZM51.6504 344.323V345.144H48.6818V344.323H51.6504ZM49.4975 349.574V343.714C49.4975 343.386 49.5711 343.114 49.7115 342.897C49.8586 342.679 50.0458 342.515 50.2865 342.408C50.5205 342.299 50.7746 342.244 51.0554 342.244C51.2626 342.244 51.4364 342.261 51.5835 342.295C51.7306 342.328 51.8376 342.357 51.9045 342.384L51.6704 343.211C51.6169 343.198 51.5568 343.182 51.4833 343.164C51.4097 343.143 51.3161 343.133 51.2091 343.133C50.9618 343.133 50.7812 343.195 50.6742 343.318C50.5739 343.441 50.5205 343.619 50.5205 343.851V349.574H49.4975ZM54.7593 349.68C54.2445 349.68 53.7965 349.57 53.4221 349.348C53.0544 349.125 52.767 348.812 52.5664 348.408C52.3658 348.003 52.2655 347.528 52.2655 346.983C52.2655 346.445 52.3658 345.971 52.5664 345.56C52.767 345.15 53.0478 344.83 53.4088 344.6C53.7766 344.369 54.2044 344.254 54.6925 344.254C54.9866 344.254 55.2742 344.303 55.555 344.401C55.8291 344.5 56.0765 344.654 56.3038 344.863C56.5244 345.073 56.6983 345.345 56.8253 345.68C56.9523 346.013 57.0125 346.417 57.0125 346.894V347.256H52.8405V346.49H56.0163C56.0163 346.221 55.9561 345.983 55.8491 345.776C55.7421 345.566 55.5884 345.401 55.3878 345.28C55.1939 345.159 54.9599 345.099 54.6992 345.099C54.4117 345.099 54.1576 345.17 53.9437 345.311C53.7297 345.45 53.5693 345.632 53.4556 345.858C53.3419 346.081 53.2818 346.324 53.2818 346.586V347.184C53.2818 347.535 53.3419 347.834 53.469 348.08C53.5893 348.326 53.7632 348.515 53.9905 348.644C54.2111 348.772 54.4718 348.836 54.7727 348.836C54.9666 348.836 55.1404 348.808 55.3009 348.754C55.4614 348.696 55.6018 348.612 55.7154 348.501C55.8291 348.389 55.9227 348.251 55.9829 348.087L56.9523 348.261C56.8721 348.546 56.7317 348.796 56.5311 349.01C56.3372 349.222 56.0831 349.387 55.7823 349.506C55.4881 349.622 55.1471 349.68 54.7593 349.68ZM58.1491 349.574V344.323H59.1386V345.157H59.1921C59.2857 344.874 59.4595 344.652 59.7002 344.49C59.9409 344.326 60.215 344.244 60.5226 344.244C60.5894 344.244 60.663 344.246 60.7499 344.251C60.8369 344.256 60.9104 344.261 60.9572 344.268V345.246C60.917 345.235 60.8435 345.222 60.7432 345.208C60.6363 345.192 60.5293 345.184 60.429 345.184C60.1817 345.184 59.9676 345.236 59.7804 345.338C59.5932 345.438 59.4462 345.579 59.3325 345.759C59.2256 345.937 59.1721 346.139 59.1721 346.367V349.574H58.1491ZM63.9191 349.68C63.4042 349.68 62.9563 349.57 62.5819 349.348C62.2141 349.125 61.9266 348.812 61.7194 348.408C61.5188 348.003 61.4185 347.528 61.4185 346.983C61.4185 346.445 61.5188 345.971 61.7194 345.56C61.9266 345.15 62.2075 344.83 62.5685 344.6C62.9362 344.369 63.3575 344.254 63.8455 344.254C64.1464 344.254 64.4338 344.303 64.7079 344.401C64.9888 344.5 65.2361 344.654 65.4568 344.863C65.6774 345.073 65.8513 345.345 65.9783 345.68C66.112 346.013 66.1722 346.417 66.1722 346.894V347.256H62.0002V346.49H65.1693C65.1693 346.221 65.1158 345.983 65.0089 345.776C64.8952 345.566 64.7414 345.401 64.5475 345.28C64.3469 345.159 64.1196 345.099 63.8522 345.099C63.5647 345.099 63.3173 345.17 63.1034 345.311C62.8894 345.45 62.7289 345.632 62.6086 345.858C62.4949 346.081 62.4414 346.324 62.4414 346.586V347.184C62.4414 347.535 62.5016 347.834 62.6219 348.08C62.749 348.326 62.9228 348.515 63.1502 348.644C63.3708 348.772 63.6316 348.836 63.9324 348.836C64.1263 348.836 64.3001 348.808 64.4606 348.754C64.621 348.696 64.7547 348.612 64.8751 348.501C64.9888 348.389 65.0757 348.251 65.1425 348.087L66.1054 348.261C66.0318 348.546 65.8914 348.796 65.6908 349.01C65.4903 349.222 65.2429 349.387 64.942 349.506C64.6412 349.622 64.3002 349.68 63.9191 349.68ZM68.3317 346.456V349.574H67.3088V344.323H68.285V345.178H68.3518C68.4722 344.9 68.666 344.676 68.9201 344.507C69.1809 344.339 69.5084 344.254 69.9029 344.254C70.2573 344.254 70.5715 344.33 70.839 344.48C71.1131 344.628 71.3203 344.849 71.4674 345.144C71.6145 345.437 71.6881 345.801 71.6881 346.234V349.574H70.6651V346.357C70.6651 345.977 70.5716 345.679 70.371 345.465C70.1704 345.248 69.9029 345.14 69.5552 345.14C69.3145 345.14 69.1073 345.191 68.9201 345.294C68.7396 345.396 68.5925 345.547 68.4855 345.745C68.3785 345.941 68.3317 346.178 68.3317 346.456ZM75.2717 349.68C74.7636 349.68 74.329 349.565 73.9613 349.335C73.5936 349.102 73.3128 348.782 73.1189 348.374C72.925 347.966 72.8247 347.499 72.8247 346.972C72.8247 346.439 72.925 345.969 73.1256 345.56C73.3261 345.15 73.6069 344.83 73.9746 344.6C74.3356 344.369 74.7703 344.254 75.265 344.254C75.6595 344.254 76.0205 344.329 76.3281 344.476C76.6423 344.623 76.8964 344.827 77.0836 345.092C77.2775 345.356 77.3911 345.665 77.4313 346.019H76.4351C76.3816 345.773 76.2546 345.56 76.0607 345.383C75.8668 345.205 75.606 345.116 75.2784 345.116C74.9976 345.116 74.7435 345.191 74.5296 345.341C74.3223 345.49 74.1552 345.702 74.0348 345.977C73.9145 346.251 73.861 346.575 73.861 346.949C73.861 347.331 73.9145 347.662 74.0348 347.94C74.1485 348.218 74.3156 348.434 74.5229 348.586C74.7369 348.739 74.9909 348.816 75.2784 348.816C75.4723 348.816 75.6462 348.78 75.8066 348.709C75.9671 348.636 76.1008 348.533 76.2078 348.398C76.3147 348.264 76.3949 348.102 76.4351 347.913H77.4313C77.3911 348.253 77.2842 348.555 77.097 348.822C76.9164 349.089 76.6691 349.298 76.3548 349.451C76.0473 349.604 75.6862 349.68 75.2717 349.68ZM80.7876 349.68C80.2728 349.68 79.8248 349.57 79.4504 349.348C79.076 349.125 78.7885 348.812 78.5879 348.408C78.3873 348.003 78.2871 347.528 78.2871 346.983C78.2871 346.445 78.3873 345.971 78.5879 345.56C78.7885 345.15 79.076 344.83 79.437 344.6C79.7981 344.369 80.226 344.254 80.7141 344.254C81.0082 344.254 81.2958 344.303 81.5766 344.401C81.8574 344.5 82.1048 344.654 82.3254 344.863C82.546 345.073 82.7198 345.345 82.8468 345.68C82.9739 346.013 83.0407 346.417 83.0407 346.894V347.256H78.8687V346.49H82.0379C82.0379 346.221 81.9844 345.983 81.8774 345.776C81.7637 345.566 81.61 345.401 81.4094 345.28C81.2155 345.159 80.9882 345.099 80.7208 345.099C80.4333 345.099 80.1859 345.17 79.9719 345.311C79.758 345.45 79.5908 345.632 79.4772 345.858C79.3635 346.081 79.3033 346.324 79.3033 346.586V347.184C79.3033 347.535 79.3701 347.834 79.4905 348.08C79.6175 348.326 79.7914 348.515 80.012 348.644C80.2393 348.772 80.5001 348.836 80.7943 348.836C80.9882 348.836 81.1686 348.808 81.3291 348.754C81.4896 348.696 81.6234 348.612 81.7437 348.501C81.8574 348.389 81.9442 348.251 82.0044 348.087L82.9739 348.261C82.9004 348.546 82.76 348.796 82.5594 349.01C82.3588 349.222 82.1114 349.387 81.8106 349.506C81.5097 349.622 81.1687 349.68 80.7876 349.68ZM88.1086 345.605L87.186 345.769C87.1459 345.65 87.0857 345.537 86.9988 345.43C86.9186 345.323 86.8049 345.236 86.6645 345.167C86.5241 345.099 86.3436 345.065 86.1363 345.065C85.8421 345.065 85.6015 345.13 85.4076 345.259C85.2137 345.387 85.12 345.553 85.12 345.755C85.12 345.931 85.1802 346.072 85.314 346.179C85.441 346.286 85.6549 346.374 85.9424 346.443L86.7781 346.634C87.2595 346.746 87.6206 346.918 87.8546 347.15C88.0953 347.383 88.2089 347.685 88.2089 348.056C88.2089 348.371 88.122 348.651 87.9415 348.897C87.761 349.141 87.5069 349.333 87.186 349.471C86.8584 349.61 86.4907 349.68 86.0628 349.68C85.4744 349.68 84.9997 349.555 84.6253 349.304C84.2509 349.052 84.0236 348.692 83.9433 348.227L84.9328 348.077C84.993 348.334 85.1201 348.529 85.3073 348.662C85.5012 348.791 85.7485 348.856 86.0561 348.856C86.3904 348.856 86.6578 348.787 86.8584 348.648C87.0589 348.507 87.1593 348.334 87.1593 348.132C87.1593 347.967 87.0991 347.829 86.9788 347.718C86.8584 347.606 86.6712 347.522 86.4239 347.465L85.5346 347.27C85.0398 347.158 84.6788 346.98 84.4448 346.737C84.2108 346.493 84.0971 346.184 84.0971 345.81C84.0971 345.5 84.184 345.229 84.3578 344.997C84.5317 344.764 84.7657 344.583 85.0733 344.453C85.3808 344.321 85.7285 344.254 86.1229 344.254C86.6912 344.254 87.1392 344.377 87.4601 344.623C87.7877 344.867 88.0017 345.194 88.1086 345.605ZM90.0075 349.639C89.8203 349.639 89.6598 349.573 89.526 349.441C89.3923 349.306 89.3255 349.144 89.3255 348.955C89.3255 348.769 89.3923 348.609 89.526 348.477C89.6598 348.342 89.8203 348.275 90.0075 348.275C90.1947 348.275 90.3551 348.342 90.4889 348.477C90.6293 348.609 90.6961 348.769 90.6961 348.955C90.6961 349.081 90.6627 349.196 90.5959 349.301C90.5357 349.403 90.4555 349.485 90.3485 349.547C90.2482 349.608 90.1345 349.639 90.0075 349.639ZM90.0075 345.817C89.8203 345.817 89.6598 345.749 89.526 345.615C89.3923 345.481 89.3255 345.32 89.3255 345.133C89.3255 344.946 89.3923 344.787 89.526 344.654C89.6598 344.52 89.8203 344.453 90.0075 344.453C90.1947 344.453 90.3551 344.52 90.4889 344.654C90.6293 344.787 90.6961 344.946 90.6961 345.133C90.6961 345.259 90.6627 345.374 90.5959 345.479C90.5357 345.581 90.4555 345.663 90.3485 345.725C90.2482 345.786 90.1345 345.817 90.0075 345.817ZM99.4346 344.785C99.3677 344.577 99.2741 344.391 99.1672 344.227C99.0535 344.06 98.9265 343.919 98.7727 343.803C98.6189 343.685 98.4451 343.594 98.2512 343.533C98.0573 343.471 97.8434 343.441 97.6094 343.441C97.2149 343.441 96.8605 343.542 96.5396 343.745C96.2253 343.948 95.9779 344.245 95.7907 344.637C95.6102 345.027 95.5167 345.505 95.5167 346.07C95.5167 346.637 95.6102 347.117 95.7907 347.509C95.9779 347.902 96.232 348.199 96.5529 348.402C96.8739 348.604 97.2416 348.706 97.6494 348.706C98.0305 348.706 98.3648 348.628 98.6456 348.473C98.9331 348.318 99.1471 348.099 99.3075 347.817C99.4613 347.532 99.5416 347.197 99.5416 346.812L99.8157 346.863H97.8099V345.991H100.564V346.788C100.564 347.376 100.437 347.886 100.19 348.319C99.9361 348.751 99.595 349.083 99.1538 349.318C98.7192 349.553 98.2177 349.67 97.6494 349.67C97.0143 349.67 96.4594 349.524 95.9847 349.233C95.5033 348.941 95.1355 348.527 94.8681 347.991C94.6006 347.454 94.4669 346.815 94.4669 346.077C94.4669 345.518 94.5472 345.017 94.7009 344.573C94.8547 344.128 95.0754 343.751 95.3495 343.441C95.637 343.128 95.9646 342.89 96.3457 342.726C96.7335 342.559 97.148 342.477 97.6027 342.477C97.9838 342.477 98.3314 342.533 98.659 342.644C98.9866 342.756 99.2808 342.915 99.5349 343.119C99.789 343.324 100.003 343.568 100.17 343.851C100.344 344.131 100.458 344.442 100.518 344.785H99.4346ZM101.902 349.574V342.572H104.402C104.944 342.572 105.392 342.666 105.753 342.852C106.107 343.04 106.381 343.298 106.555 343.629C106.736 343.957 106.822 344.337 106.822 344.767C106.822 345.196 106.736 345.573 106.555 345.899C106.375 346.223 106.107 346.475 105.746 346.655C105.392 346.834 104.937 346.925 104.396 346.925H102.503V346.015H104.302C104.643 346.015 104.924 345.966 105.138 345.868C105.352 345.77 105.512 345.628 105.612 345.441C105.713 345.254 105.759 345.029 105.759 344.767C105.759 344.503 105.706 344.274 105.606 344.08C105.505 343.887 105.345 343.738 105.131 343.636C104.917 343.531 104.636 343.478 104.289 343.478H102.958V349.574H101.902ZM105.358 346.415L107.09 349.574H105.887L104.188 346.415H105.358ZM109.163 342.572V349.574H108.106V342.572H109.163ZM115.594 349.67C115.126 349.67 114.705 349.589 114.338 349.427C113.97 349.265 113.676 349.041 113.462 348.754C113.254 348.464 113.141 348.13 113.121 347.748H114.197C114.21 347.956 114.277 348.136 114.404 348.289C114.531 348.439 114.699 348.555 114.906 348.638C115.106 348.719 115.334 348.761 115.588 348.761C115.862 348.761 116.109 348.713 116.317 348.617C116.53 348.521 116.698 348.388 116.825 348.217C116.945 348.044 117.005 347.844 117.005 347.619C117.005 347.384 116.945 347.177 116.825 347C116.704 346.82 116.53 346.679 116.296 346.576C116.069 346.473 115.795 346.422 115.474 346.422H114.879V345.56H115.474C115.728 345.56 115.962 345.514 116.156 345.42C116.35 345.327 116.51 345.197 116.617 345.031C116.731 344.862 116.785 344.665 116.785 344.439C116.785 344.222 116.738 344.034 116.637 343.875C116.544 343.713 116.41 343.586 116.23 343.496C116.056 343.404 115.848 343.358 115.608 343.358C115.38 343.358 115.167 343.401 114.966 343.486C114.772 343.567 114.612 343.686 114.491 343.841C114.364 343.994 114.304 344.177 114.291 344.391H113.268C113.281 344.013 113.395 343.68 113.602 343.393C113.816 343.106 114.103 342.881 114.451 342.719C114.805 342.557 115.193 342.477 115.621 342.477C116.069 342.477 116.457 342.564 116.785 342.74C117.112 342.913 117.366 343.145 117.54 343.434C117.721 343.724 117.814 344.04 117.807 344.384C117.814 344.777 117.701 345.109 117.48 345.383C117.266 345.656 116.972 345.84 116.604 345.933V345.988C117.072 346.058 117.433 346.243 117.687 346.542C117.941 346.841 118.075 347.211 118.068 347.653C118.075 348.038 117.968 348.384 117.747 348.688C117.533 348.994 117.239 349.235 116.871 349.41C116.497 349.584 116.076 349.67 115.594 349.67ZM121.799 349.691C121.257 349.688 120.796 349.546 120.415 349.263C120.034 348.981 119.74 348.569 119.539 348.029C119.332 347.489 119.232 346.838 119.232 346.077C119.232 345.317 119.332 344.67 119.539 344.131C119.74 343.593 120.034 343.183 120.422 342.901C120.803 342.618 121.264 342.477 121.799 342.477C122.334 342.477 122.795 342.619 123.176 342.904C123.557 343.187 123.852 343.597 124.059 344.135C124.259 344.67 124.366 345.317 124.366 346.077C124.366 346.84 124.259 347.492 124.059 348.033C123.858 348.57 123.564 348.982 123.183 349.267C122.795 349.549 122.34 349.691 121.799 349.691ZM121.799 348.777C122.274 348.777 122.641 348.546 122.909 348.083C123.183 347.621 123.317 346.952 123.317 346.077C123.317 345.495 123.25 345.005 123.129 344.603C123.009 344.2 122.835 343.894 122.608 343.687C122.381 343.477 122.113 343.373 121.799 343.373C121.331 343.373 120.957 343.605 120.689 344.07C120.422 344.535 120.281 345.204 120.281 346.077C120.281 346.66 120.341 347.153 120.462 347.557C120.589 347.958 120.763 348.263 120.983 348.47C121.211 348.675 121.485 348.777 121.799 348.777ZM125.576 349.574V348.808L127.943 346.354C128.197 346.087 128.405 345.854 128.572 345.653C128.739 345.45 128.859 345.257 128.946 345.075C129.026 344.893 129.067 344.699 129.067 344.494C129.067 344.261 129.013 344.06 128.906 343.892C128.792 343.721 128.645 343.59 128.458 343.499C128.264 343.405 128.05 343.358 127.816 343.358C127.562 343.358 127.348 343.41 127.161 343.512C126.974 343.615 126.827 343.76 126.726 343.947C126.626 344.133 126.579 344.353 126.579 344.603H125.57C125.57 344.177 125.67 343.804 125.864 343.486C126.058 343.166 126.332 342.919 126.673 342.743C127.014 342.566 127.402 342.477 127.836 342.477C128.278 342.477 128.665 342.564 129 342.74C129.334 342.913 129.601 343.15 129.789 343.451C129.976 343.75 130.069 344.087 130.069 344.463C130.069 344.723 130.023 344.977 129.922 345.225C129.829 345.474 129.662 345.751 129.421 346.056C129.187 346.359 128.853 346.727 128.425 347.161L127.034 348.617V348.668H130.183V349.574H125.576ZM134.589 345.629V346.518H131.487V345.629H134.589ZM138.594 342.572V349.574H137.538V343.632H137.491L135.819 344.726V343.714L137.564 342.572H138.594Z" fill="#709C9B"/>
</g>
<g filter="url(#filter1_d_0_1)">
<path d="M249.085 11H17.4854C13.9405 11 11.0669 13.8736 11.0669 17.4185V110.887C11.0669 114.432 13.9405 117.306 17.4854 117.306H249.085C252.63 117.306 255.504 114.432 255.504 110.887V17.4185C255.504 13.8736 252.63 11 249.085 11Z" fill="white"/>
<path d="M45.5659 35.8716H47.1706V37.4762H45.5659V35.8716ZM45.5659 39.0808H47.1706V43.8947H45.5659V39.0808ZM46.3683 31.86C41.9422 31.86 38.3452 35.4544 38.3452 39.8831C38.3452 44.3119 41.9422 47.9062 46.3683 47.9062C50.7944 47.9062 54.3914 44.3119 54.3914 39.8831C54.3914 35.4544 50.7944 31.86 46.3683 31.86ZM46.3683 46.3016C42.8315 46.3016 39.9498 43.4213 39.9498 39.8831C39.9498 36.345 42.8315 33.4647 46.3683 33.4647C49.9052 33.4647 52.7868 36.345 52.7868 39.8831C52.7868 43.4213 49.9052 46.3016 46.3683 46.3016Z" fill="#003A40"/>
<path d="M66.747 36.0601V44.229H65.2561L61.6991 39.0875H61.639V44.229H59.9141V36.0601H61.4318L64.9552 41.1976H65.0288V36.0601H66.747ZM69.8894 44.3446C69.5016 44.3446 69.154 44.2771 68.8464 44.1414C68.5389 44.003 68.2982 43.7998 68.1177 43.531C67.9439 43.2595 67.8569 42.9219 67.8569 42.5181C67.8569 42.1771 67.917 41.8916 68.0441 41.6603C68.1711 41.4289 68.3383 41.2424 68.5522 41.102C68.7662 40.9609 69.0136 40.8546 69.2877 40.7824C69.5618 40.7109 69.856 40.66 70.1568 40.6313C70.5112 40.5939 70.7987 40.5591 71.0193 40.5277C71.24 40.4929 71.3937 40.4421 71.494 40.3759C71.5943 40.309 71.6411 40.2107 71.6411 40.0804V40.057C71.6411 39.8042 71.5609 39.6084 71.4004 39.4706C71.2466 39.3322 71.0193 39.2627 70.7318 39.2627C70.4243 39.2627 70.1836 39.3309 70.0031 39.4666C69.8226 39.5997 69.7022 39.7668 69.642 39.9687L68.0708 39.841C68.1511 39.4693 68.3049 39.147 68.5389 38.8762C68.7729 38.6021 69.0805 38.3922 69.4482 38.2458C69.8226 38.0967 70.2504 38.0224 70.7385 38.0224C71.0795 38.0224 71.4072 38.0626 71.7147 38.1421C72.0289 38.2217 72.3098 38.3454 72.5504 38.5132C72.7978 38.6803 72.985 38.8963 73.1321 39.1591C73.2725 39.4198 73.3393 39.732 73.3393 40.0964V44.229H71.728V43.3792H71.6812C71.581 43.5711 71.4539 43.7396 71.2868 43.886C71.1197 44.0298 70.9258 44.1427 70.6917 44.225C70.4577 44.3045 70.1903 44.3446 69.8894 44.3446ZM70.3775 43.1719C70.6249 43.1719 70.8455 43.1225 71.0394 43.0242C71.2333 42.9232 71.3804 42.7875 71.4873 42.6177C71.601 42.4472 71.6545 42.2546 71.6545 42.0393V41.3888C71.601 41.4236 71.5275 41.4557 71.4339 41.4844C71.3403 41.5112 71.24 41.5366 71.1263 41.5606C71.0127 41.582 70.899 41.6014 70.7854 41.6201C70.6717 41.6362 70.5647 41.6509 70.4711 41.6643C70.2705 41.6937 70.0967 41.7398 69.9496 41.804C69.8025 41.8675 69.6822 41.9538 69.6019 42.0627C69.5217 42.1697 69.4816 42.3021 69.4816 42.4619C69.4816 42.6932 69.5618 42.8704 69.7289 42.9928C69.9028 43.1118 70.1168 43.1719 70.3775 43.1719ZM77.9192 38.102V39.3784H74.2285V38.102H77.9192ZM75.0643 36.6345H76.7625V42.3462C76.7625 42.5034 76.7893 42.6257 76.8361 42.7133C76.8829 42.7982 76.9498 42.8584 77.0367 42.8925C77.1236 42.9272 77.2238 42.9446 77.3375 42.9446C77.4177 42.9446 77.498 42.9379 77.5782 42.9246C77.6584 42.9085 77.7186 42.8965 77.7587 42.8885L78.0262 44.1534C77.9459 44.1795 77.8256 44.2103 77.6718 44.245C77.518 44.2818 77.3308 44.3045 77.1102 44.3126C76.6957 44.3286 76.3413 44.2744 76.0338 44.1494C75.7262 44.0244 75.4855 43.8298 75.3183 43.5671C75.1445 43.3036 75.0643 42.9714 75.0643 42.5695V36.6345ZM82.9537 41.6201V38.102H84.6519V44.229H83.0205V43.1158H82.9604C82.82 43.4748 82.5859 43.7636 82.265 43.9816C81.9508 44.1996 81.5563 44.3085 81.1017 44.3085C80.6871 44.3085 80.3261 44.2156 80.0186 44.0297C79.7043 43.8432 79.4636 43.5791 79.2898 43.2354C79.116 42.8925 79.029 42.482 79.0224 42.0032V38.102H80.7206V41.7004C80.7273 42.0614 80.8209 42.3476 81.0148 42.5575C81.2086 42.7675 81.4627 42.8731 81.7836 42.8731C81.9909 42.8731 82.1781 42.8263 82.3586 42.7334C82.5391 42.6377 82.6796 42.4967 82.7865 42.3101C82.9002 42.1242 82.9537 41.8943 82.9537 41.6201ZM86.0091 44.229V38.102H87.6606V39.1711H87.7207C87.8344 38.7907 88.0216 38.5038 88.2823 38.3099C88.5498 38.1127 88.8506 38.0144 89.1916 38.0144C89.2785 38.0144 89.3722 38.0198 89.4724 38.0305C89.566 38.0412 89.653 38.0559 89.7265 38.0746V39.5823C89.6463 39.5582 89.5393 39.5368 89.3989 39.5181C89.2585 39.4994 89.1248 39.49 89.0112 39.49C88.7638 39.49 88.5365 39.5448 88.3426 39.6538C88.1487 39.7601 87.9949 39.9092 87.8812 40.1004C87.7675 40.2923 87.714 40.5129 87.714 40.763V44.229H86.0091ZM92.1803 44.3446C91.7858 44.3446 91.4381 44.2771 91.1372 44.1414C90.8297 44.003 90.589 43.7998 90.4085 43.531C90.2347 43.2595 90.1477 42.9219 90.1477 42.5181C90.1477 42.1771 90.2079 41.8916 90.335 41.6603C90.4553 41.4289 90.6291 41.2424 90.8431 41.102C91.057 40.9609 91.3044 40.8546 91.5785 40.7824C91.8526 40.7109 92.1401 40.66 92.4476 40.6313C92.802 40.5939 93.0895 40.5591 93.3102 40.5277C93.5241 40.4929 93.6845 40.4421 93.7848 40.3759C93.8784 40.309 93.932 40.2107 93.932 40.0804V40.057C93.932 39.8042 93.8518 39.6084 93.6913 39.4706C93.5308 39.3322 93.3102 39.2627 93.0227 39.2627C92.7151 39.2627 92.4744 39.3309 92.2939 39.4666C92.1067 39.5997 91.9931 39.7668 91.9329 39.9687L90.3616 39.841C90.4419 39.4693 90.5957 39.147 90.8297 38.8762C91.0637 38.6021 91.3646 38.3922 91.739 38.2458C92.1067 38.0967 92.5412 38.0224 93.0293 38.0224C93.3703 38.0224 93.698 38.0626 94.0055 38.1421C94.3197 38.2217 94.6006 38.3454 94.8412 38.5132C95.0819 38.6803 95.2758 38.8963 95.4162 39.1591C95.5566 39.4198 95.6301 39.732 95.6301 40.0964V44.229H94.0189V43.3792H93.972C93.8718 43.5711 93.7381 43.7396 93.5776 43.886C93.4105 44.0298 93.2099 44.1427 92.9825 44.225C92.7485 44.3045 92.4811 44.3446 92.1803 44.3446ZM92.6683 43.1719C92.9157 43.1719 93.1363 43.1225 93.3302 43.0242C93.5174 42.9232 93.6712 42.7875 93.7782 42.6177C93.8852 42.4472 93.9454 42.2546 93.9454 42.0393V41.3888C93.8919 41.4236 93.8183 41.4557 93.7247 41.4844C93.6311 41.5112 93.5308 41.5366 93.4171 41.5606C93.3035 41.582 93.1898 41.6014 93.0695 41.6201C92.9558 41.6362 92.8555 41.6509 92.7619 41.6643C92.5614 41.6937 92.3875 41.7398 92.2404 41.804C92.0933 41.8675 91.973 41.9538 91.8927 42.0627C91.8125 42.1697 91.7657 42.3021 91.7657 42.4619C91.7657 42.6932 91.8527 42.8704 92.0198 42.9928C92.187 43.1118 92.4076 43.1719 92.6683 43.1719ZM98.6455 36.0601V44.229H96.9473V36.0601H98.6455ZM108.059 38.7004C107.999 38.5065 107.919 38.3347 107.819 38.1862C107.718 38.0345 107.598 37.9068 107.451 37.8031C107.304 37.6968 107.143 37.6153 106.956 37.5598C106.769 37.5036 106.568 37.4762 106.348 37.4762C105.926 37.4762 105.559 37.5798 105.244 37.7871C104.93 37.9944 104.683 38.2966 104.509 38.6924C104.335 39.0862 104.248 39.5676 104.248 40.1365C104.248 40.7055 104.335 41.1896 104.509 41.5887C104.676 41.9872 104.924 42.2921 105.238 42.502C105.559 42.7093 105.933 42.8129 106.361 42.8129C106.749 42.8129 107.083 42.744 107.364 42.6056C107.645 42.4646 107.852 42.2667 107.999 42.0113C108.146 41.7559 108.226 41.4543 108.226 41.106L108.574 41.1575H106.468V39.8571H109.885V40.8867C109.885 41.6041 109.737 42.2212 109.43 42.7374C109.129 43.2502 108.714 43.6466 108.18 43.9261C107.651 44.2022 107.036 44.3406 106.354 44.3406C105.585 44.3406 104.917 44.1715 104.335 43.8339C103.754 43.4935 103.306 43.0108 102.978 42.3863C102.657 41.7585 102.497 41.0137 102.497 40.1526C102.497 39.49 102.59 38.8997 102.784 38.3815C102.978 37.86 103.245 37.4187 103.6 37.057C103.947 36.6953 104.349 36.4205 104.817 36.2313C105.278 36.0428 105.779 35.9485 106.314 35.9485C106.782 35.9485 107.21 36.016 107.611 36.1517C108.006 36.2848 108.36 36.4733 108.668 36.718C108.982 36.9627 109.236 37.2542 109.43 37.5919C109.63 37.9269 109.758 38.2966 109.811 38.7004H108.059ZM112.9 44.3446C112.512 44.3446 112.158 44.2771 111.857 44.1414C111.549 44.003 111.309 43.7998 111.128 43.531C110.954 43.2595 110.867 42.9219 110.867 42.5181C110.867 42.1771 110.928 41.8916 111.055 41.6603C111.175 41.4289 111.349 41.2424 111.563 41.102C111.777 40.9609 112.024 40.8546 112.298 40.7824C112.572 40.7109 112.866 40.66 113.167 40.6313C113.522 40.5939 113.809 40.5591 114.03 40.5277C114.244 40.4929 114.404 40.4421 114.505 40.3759C114.605 40.309 114.652 40.2107 114.652 40.0804V40.057C114.652 39.8042 114.571 39.6084 114.411 39.4706C114.257 39.3322 114.03 39.2627 113.742 39.2627C113.435 39.2627 113.194 39.3309 113.014 39.4666C112.833 39.5997 112.713 39.7668 112.653 39.9687L111.081 39.841C111.161 39.4693 111.315 39.147 111.549 38.8762C111.783 38.6021 112.084 38.3922 112.459 38.2458C112.826 38.0967 113.261 38.0224 113.749 38.0224C114.09 38.0224 114.418 38.0626 114.725 38.1421C115.039 38.2217 115.32 38.3454 115.561 38.5132C115.802 38.6803 115.995 38.8963 116.136 39.1591C116.276 39.4198 116.35 39.732 116.35 40.0964V44.229H114.739V43.3792H114.692C114.591 43.5711 114.458 43.7396 114.297 43.886C114.13 44.0298 113.929 44.1427 113.702 44.225C113.468 44.3045 113.201 44.3446 112.9 44.3446ZM113.388 43.1719C113.635 43.1719 113.856 43.1225 114.05 43.0242C114.237 42.9232 114.391 42.7875 114.498 42.6177C114.611 42.4472 114.665 42.2546 114.665 42.0393V41.3888C114.611 41.4236 114.538 41.4557 114.444 41.4844C114.351 41.5112 114.25 41.5366 114.137 41.5606C114.023 41.582 113.909 41.6014 113.796 41.6201C113.682 41.6362 113.575 41.6509 113.482 41.6643C113.281 41.6937 113.107 41.7398 112.96 41.804C112.813 41.8675 112.693 41.9538 112.612 42.0627C112.532 42.1697 112.492 42.3021 112.492 42.4619C112.492 42.6932 112.572 42.8704 112.739 42.9928C112.913 43.1118 113.127 43.1719 113.388 43.1719ZM122.768 39.849L121.21 39.9453C121.184 39.8123 121.124 39.6926 121.037 39.5863C120.95 39.4773 120.836 39.3904 120.689 39.3269C120.549 39.26 120.381 39.2273 120.188 39.2273C119.92 39.2273 119.699 39.2827 119.519 39.3944C119.338 39.5034 119.245 39.6498 119.245 39.8337C119.245 39.9794 119.305 40.1031 119.425 40.2041C119.539 40.305 119.74 40.3866 120.027 40.4474L121.137 40.6707C121.732 40.7931 122.173 40.9903 122.467 41.2611C122.762 41.5325 122.909 41.8889 122.909 42.3302C122.909 42.732 122.788 43.0844 122.548 43.3872C122.314 43.6908 121.993 43.9274 121.585 44.0973C121.177 44.2651 120.709 44.3487 120.174 44.3487C119.365 44.3487 118.723 44.1795 118.242 43.8419C117.761 43.5016 117.48 43.0389 117.4 42.4539L119.071 42.3663C119.118 42.6137 119.238 42.8022 119.432 42.9326C119.633 43.0603 119.88 43.1238 120.181 43.1238C120.482 43.1238 120.716 43.067 120.896 42.9526C121.083 42.8356 121.177 42.6852 121.177 42.502C121.177 42.3476 121.11 42.2212 120.983 42.1229C120.856 42.022 120.656 41.9444 120.395 41.8916L119.332 41.6803C118.73 41.5606 118.289 41.3534 117.995 41.0579C117.707 40.763 117.56 40.3866 117.56 39.9293C117.56 39.5355 117.667 39.1965 117.881 38.9117C118.095 38.6275 118.396 38.4082 118.783 38.2538C119.178 38.0993 119.633 38.0224 120.154 38.0224C120.93 38.0224 121.538 38.1863 121.986 38.5132C122.434 38.8401 122.695 39.2854 122.768 39.849Z" fill="#003A40"/>
<path d="M39.569 74.115V61.7915L40.9195 63.1394H36.8745V60.6362H42.6913V74.115H39.569ZM44.5299 74.115V72.0932L49.7316 67.183C50.1394 66.8106 50.4403 66.477 50.6342 66.1822C50.8281 65.8866 50.9551 65.6172 51.0219 65.3732C51.0955 65.1291 51.1356 64.9045 51.1356 64.6992C51.1356 64.1603 50.9484 63.7491 50.5806 63.467C50.2196 63.1715 49.6848 63.0237 48.9828 63.0237C48.4145 63.0237 47.8862 63.1334 47.3981 63.3513C46.9234 63.5693 46.5223 63.9096 46.188 64.3716L43.9148 62.9087C44.4296 62.1385 45.145 61.5288 46.0743 61.0795C46.997 60.6302 48.0601 60.4055 49.2702 60.4055C50.2664 60.4055 51.1423 60.572 51.8844 60.9056C52.6466 61.2266 53.2283 61.6825 53.6361 62.2729C54.064 62.8633 54.278 63.5693 54.278 64.391C54.278 64.8276 54.2178 65.2642 54.1041 65.7008C53.9971 66.124 53.7832 66.5733 53.4489 67.0486C53.128 67.5233 52.6533 68.0562 52.0248 68.6466L47.7057 72.7096L47.1107 71.5737H54.7192V74.115H44.5299ZM55.9227 77.0802L57.193 72.4589L57.6209 74.1919C57.066 74.1919 56.6114 74.0314 56.2503 73.7105C55.9027 73.3896 55.7288 72.947 55.7288 72.382C55.7288 71.817 55.9093 71.3677 56.2703 71.0341C56.6314 70.7005 57.0726 70.5333 57.6008 70.5333C58.1357 70.5333 58.5837 70.7072 58.9247 71.0535C59.2724 71.3871 59.4461 71.8304 59.4461 72.382C59.4461 72.5492 59.4328 72.7156 59.4061 72.8828C59.386 73.0365 59.3325 73.2291 59.2523 73.4604C59.1921 73.6784 59.0785 73.9612 58.9247 74.3075L57.8282 77.0802H55.9227ZM65.0423 74.3463C64.1062 74.3463 63.1769 74.224 62.2543 73.9806C61.3383 73.7239 60.556 73.3642 59.9008 72.9022L61.1377 70.5146C61.6525 70.8864 62.2409 71.1819 62.9095 71.3998C63.5848 71.6185 64.2734 71.7275 64.9687 71.7275C65.751 71.7275 66.3661 71.5737 66.814 71.2654C67.2687 70.9572 67.4893 70.5273 67.4893 69.9751C67.4893 69.6287 67.4024 69.3205 67.2219 69.0511C67.0413 68.7816 66.7205 68.5757 66.2591 68.4346C65.8112 68.2936 65.176 68.2227 64.3537 68.2227H60.9037L61.5991 60.6362H69.8227V63.1394H62.7156L64.3336 61.7146L63.8522 67.1255L62.2342 65.7008H65.0824C66.4196 65.7008 67.4893 65.8866 68.2983 66.259C69.1207 66.6181 69.7157 67.1128 70.0901 67.7413C70.4646 68.3705 70.645 69.0832 70.645 69.8788C70.645 70.6751 70.4511 71.4132 70.05 72.0932C69.6555 72.7611 69.0405 73.3067 68.2048 73.7299C67.3824 74.1411 66.3259 74.3463 65.0423 74.3463ZM77.3043 74.3463C76.2011 74.3463 75.2115 74.0769 74.3424 73.5373C73.4665 72.9857 72.7779 72.1894 72.2765 71.1498C71.7817 70.1101 71.5276 68.8518 71.5276 67.3756C71.5276 65.8993 71.7817 64.6417 72.2765 63.6014C72.7779 62.5617 73.4665 61.7721 74.3424 61.2332C75.2115 60.681 76.2011 60.4055 77.3043 60.4055C78.4208 60.4055 79.4103 60.681 80.2728 61.2332C81.1419 61.7721 81.8306 62.5617 82.332 63.6014C82.8334 64.6417 83.0809 65.8993 83.0809 67.3756C83.0809 68.8518 82.8334 70.1101 82.332 71.1498C81.8306 72.1894 81.1419 72.9857 80.2728 73.5373C79.4103 74.0769 78.4208 74.3463 77.3043 74.3463ZM77.3043 71.708C77.8325 71.708 78.287 71.5603 78.6748 71.2654C79.0693 70.9699 79.3769 70.5013 79.5975 69.8594C79.8248 69.2176 79.9452 68.3898 79.9452 67.3756C79.9452 66.3613 79.8248 65.5336 79.5975 64.8918C79.3769 64.2499 79.0693 63.7812 78.6748 63.4864C78.287 63.1909 77.8325 63.0431 77.3043 63.0431C76.7895 63.0431 76.3348 63.1909 75.9403 63.4864C75.5525 63.7812 75.245 64.2499 75.011 64.8918C74.797 65.5336 74.6834 66.3613 74.6834 67.3756C74.6834 68.3898 74.797 69.2176 75.011 69.8594C75.245 70.5013 75.5525 70.9699 75.9403 71.2654C76.3348 71.5603 76.7895 71.708 77.3043 71.708ZM89.9874 74.3463C88.8842 74.3463 87.8947 74.0769 87.0255 73.5373C86.1497 72.9857 85.4611 72.1894 84.9663 71.1498C84.4649 70.1101 84.2108 68.8518 84.2108 67.3756C84.2108 65.8993 84.4649 64.6417 84.9663 63.6014C85.4611 62.5617 86.1497 61.7721 87.0255 61.2332C87.8947 60.681 88.8842 60.4055 89.9874 60.4055C91.104 60.4055 92.0934 60.681 92.9559 61.2332C93.8251 61.7721 94.5138 62.5617 95.0152 63.6014C95.5167 64.6417 95.7641 65.8993 95.7641 67.3756C95.7641 68.8518 95.5167 70.1101 95.0152 71.1498C94.5138 72.1894 93.8251 72.9857 92.9559 73.5373C92.0934 74.0769 91.104 74.3463 89.9874 74.3463ZM89.9874 71.708C90.5156 71.708 90.9702 71.5603 91.358 71.2654C91.7525 70.9699 92.06 70.5013 92.2806 69.8594C92.5146 69.2176 92.6283 68.3898 92.6283 67.3756C92.6283 66.3613 92.5146 65.5336 92.2806 64.8918C92.06 64.2499 91.7525 63.7812 91.358 63.4864C90.9702 63.1909 90.5156 63.0431 89.9874 63.0431C89.4726 63.0431 89.0179 63.1909 88.6235 63.4864C88.2357 63.7812 87.9281 64.2499 87.7008 64.8918C87.4802 65.5336 87.3732 66.3613 87.3732 67.3756C87.3732 68.3898 87.4802 69.2176 87.7008 69.8594C87.9281 70.5013 88.2357 70.9699 88.6235 71.2654C89.0179 71.5603 89.4726 71.708 89.9874 71.708Z" fill="#003A40"/>
<path d="M102.657 72.1005L102.664 69.7705H102.945L105.191 67.1128H107.418L104.402 70.6323H103.941L102.657 72.1005ZM100.899 74.115V64.7788H102.838V74.115H100.899ZM105.278 74.115L103.212 71.0655L104.509 69.6936L107.551 74.115H105.278ZM111.235 76.8869C110.607 76.8869 110.065 76.8 109.617 76.6269C109.169 76.4564 108.815 76.2244 108.554 75.9295C108.287 75.6347 108.113 75.3031 108.04 74.9353L109.831 74.694C109.885 74.8337 109.972 74.9647 110.092 75.0858C110.212 75.2074 110.366 75.3051 110.56 75.3779C110.761 75.4535 111.001 75.4916 111.282 75.4916C111.703 75.4916 112.051 75.3886 112.325 75.182C112.606 74.9781 112.74 74.6365 112.74 74.1564V72.8754H112.659C112.573 73.07 112.446 73.2538 112.278 73.427C112.105 73.6002 111.884 73.7412 111.616 73.8509C111.349 73.9599 111.035 74.0147 110.66 74.0147C110.139 74.0147 109.658 73.893 109.223 73.6503C108.795 73.4042 108.454 73.0285 108.2 72.5244C107.946 72.0169 107.819 71.3751 107.819 70.6002C107.819 69.8072 107.953 69.1447 108.207 68.6131C108.467 68.0809 108.808 67.6831 109.243 67.4184C109.671 67.1543 110.146 67.0219 110.66 67.0219C111.048 67.0219 111.376 67.0887 111.643 67.2225C111.904 67.3535 112.118 67.5173 112.278 67.7145C112.446 67.9091 112.573 68.101 112.659 68.2895H112.733V67.1128H114.659V74.1832C114.659 74.7789 114.511 75.2777 114.224 75.6788C113.93 76.08 113.529 76.3808 113.007 76.5814C112.499 76.7846 111.904 76.8869 111.235 76.8869ZM111.275 72.5558C111.59 72.5558 111.857 72.4783 112.071 72.3238C112.292 72.1654 112.459 71.9407 112.573 71.6492C112.693 71.3544 112.753 71.0013 112.753 70.5915C112.753 70.181 112.693 69.8253 112.579 69.5244C112.459 69.2209 112.292 68.9849 112.078 68.8177C111.857 68.6506 111.59 68.567 111.275 68.567C110.961 68.567 110.687 68.6539 110.473 68.8271C110.253 68.9976 110.085 69.2342 109.972 69.5385C109.858 69.842 109.805 70.193 109.805 70.5915C109.805 70.9953 109.858 71.345 109.972 71.6398C110.092 71.9313 110.253 72.158 110.473 72.3191C110.687 72.4769 110.961 72.5558 111.275 72.5558ZM127.449 68.0475H125.456C125.416 67.7894 125.343 67.5601 125.229 67.3595C125.115 67.1556 124.975 66.9824 124.794 66.8394C124.621 66.697 124.42 66.5873 124.186 66.5111C123.959 66.4355 123.711 66.3974 123.444 66.3974C122.962 66.3974 122.541 66.5178 122.18 66.7578C121.819 66.9945 121.545 67.3408 121.344 67.7968C121.151 68.2494 121.05 68.7997 121.05 69.4469C121.05 70.1128 121.151 70.6717 121.344 71.1244C121.545 71.5777 121.826 71.9193 122.187 72.1507C122.541 72.3813 122.956 72.497 123.43 72.497C123.691 72.497 123.939 72.4615 124.166 72.392C124.393 72.3218 124.594 72.2202 124.768 72.0865C124.948 71.9501 125.095 71.7843 125.209 71.5897C125.329 71.3951 125.409 71.1732 125.456 70.9238L127.449 70.9331C127.402 71.3617 127.268 71.7749 127.061 72.1734C126.86 72.5685 126.586 72.9222 126.239 73.2351C125.898 73.5453 125.483 73.7914 125.008 73.9739C124.534 74.1531 123.999 74.2427 123.397 74.2427C122.568 74.2427 121.819 74.0541 121.164 73.6777C120.509 73.3006 119.994 72.7551 119.613 72.041C119.238 71.3269 119.051 70.4625 119.051 69.4469C119.051 68.4293 119.238 67.5628 119.626 66.8487C120.007 66.1347 120.529 65.5904 121.184 65.2167C121.839 64.8396 122.575 64.6517 123.397 64.6517C123.939 64.6517 124.44 64.7273 124.901 64.8791C125.369 65.0315 125.777 65.2535 126.138 65.545C126.499 65.8338 126.787 66.1875 127.014 66.6074C127.241 67.0266 127.389 67.5066 127.449 68.0475ZM137.444 69.4469C137.444 70.4651 137.25 71.3316 136.869 72.0457C136.481 72.7597 135.96 73.3053 135.298 73.6817C134.636 74.0561 133.894 74.2427 133.072 74.2427C132.242 74.2427 131.5 74.0541 130.838 73.6777C130.183 73.3006 129.662 72.7551 129.274 72.041C128.893 71.3269 128.699 70.4625 128.699 69.4469C128.699 68.4293 128.893 67.5628 129.274 66.8487C129.662 66.1347 130.183 65.5904 130.838 65.2167C131.5 64.8396 132.242 64.6517 133.072 64.6517C133.894 64.6517 134.636 64.8396 135.298 65.2167C135.96 65.5904 136.481 66.1347 136.869 66.8487C137.25 67.5628 137.444 68.4293 137.444 69.4469ZM135.445 69.4469C135.445 68.7876 135.345 68.2314 135.144 67.7787C134.95 67.3261 134.676 66.9824 134.322 66.7484C133.967 66.5144 133.553 66.3974 133.072 66.3974C132.597 66.3974 132.182 66.5144 131.821 66.7484C131.467 66.9824 131.193 67.3261 130.992 67.7787C130.798 68.2314 130.705 68.7876 130.705 69.4469C130.705 70.1068 130.798 70.663 130.992 71.1157C131.193 71.5683 131.467 71.912 131.821 72.146C132.182 72.38 132.597 72.497 133.072 72.497C133.553 72.497 133.967 72.38 134.322 72.146C134.676 71.912 134.95 71.5683 135.144 71.1157C135.345 70.663 135.445 70.1068 135.445 69.4469ZM138.855 74.115V72.6929L142.178 69.616C142.459 69.3426 142.693 69.0959 142.886 68.8772C143.08 68.6586 143.227 68.444 143.328 68.2347C143.428 68.0221 143.482 67.7921 143.482 67.5461C143.482 67.2726 143.415 67.0373 143.294 66.8394C143.167 66.6388 143 66.4857 142.779 66.3794C142.566 66.2697 142.325 66.2149 142.051 66.2149C141.763 66.2149 141.516 66.2731 141.302 66.3881C141.088 66.5037 140.921 66.6695 140.807 66.8855C140.694 67.1008 140.633 67.3575 140.633 67.6557H138.761C138.761 67.0446 138.902 66.5144 139.176 66.0645C139.45 65.6145 139.838 65.2668 140.339 65.0208C140.834 64.7748 141.409 64.6517 142.064 64.6517C142.733 64.6517 143.314 64.7701 143.809 65.0068C144.304 65.2408 144.692 65.5664 144.972 65.9822C145.247 66.3988 145.387 66.8761 145.387 67.4137C145.387 67.7667 145.313 68.1144 145.173 68.458C145.039 68.801 144.792 69.1828 144.444 69.602C144.09 70.0185 143.595 70.5186 142.953 71.1016L141.589 72.4375V72.5017H145.507V74.115H138.855ZM151.317 69.5111V71.0515H147.058V69.5111H151.317ZM156.165 74.252C155.443 74.252 154.827 74.1063 154.306 73.8141C153.791 73.5193 153.39 73.1034 153.109 72.5652C152.828 72.0243 152.688 71.3844 152.688 70.6463C152.688 69.9256 152.828 69.2938 153.109 68.7495C153.39 68.206 153.784 67.7814 154.293 67.4779C154.801 67.1737 155.402 67.0219 156.084 67.0219C156.552 67.0219 156.98 67.0961 157.375 67.2452C157.776 67.3909 158.13 67.6116 158.425 67.9064C158.725 68.2013 158.959 68.5717 159.127 69.0183C159.294 69.4622 159.381 69.9817 159.381 70.5775V71.111H153.464V69.9075H157.549C157.549 69.6281 157.489 69.38 157.368 69.1647C157.248 68.9488 157.081 68.7803 156.86 68.6586C156.653 68.5336 156.399 68.4714 156.118 68.4714C155.824 68.4714 155.563 68.5403 155.336 68.6766C155.108 68.8104 154.934 68.9916 154.807 69.2189C154.68 69.4442 154.614 69.6949 154.614 69.971V71.1157C154.614 71.462 154.674 71.7615 154.801 72.0136C154.934 72.2656 155.115 72.4602 155.356 72.5973C155.59 72.7337 155.871 72.8025 156.198 72.8025C156.412 72.8025 156.613 72.7718 156.787 72.7109C156.967 72.6501 157.121 72.5592 157.248 72.4375C157.375 72.3158 157.475 72.1674 157.542 71.9908L159.34 72.1092C159.247 72.5411 159.06 72.9175 158.779 73.2398C158.498 73.5587 158.137 73.8081 157.689 73.9873C157.255 74.1638 156.74 74.252 156.165 74.252ZM165.271 76.7405V72.9937H165.211C165.124 73.1883 164.99 73.3808 164.823 73.5727C164.662 73.7613 164.449 73.9177 164.181 74.0421C163.92 74.1664 163.606 74.2293 163.225 74.2293C162.697 74.2293 162.215 74.0922 161.781 73.8188C161.353 73.542 161.012 73.1368 160.758 72.6019C160.511 72.0637 160.384 71.4045 160.384 70.6229C160.384 69.8206 160.517 69.154 160.771 68.6218C161.032 68.0869 161.373 67.6878 161.801 67.423C162.236 67.1556 162.71 67.0219 163.218 67.0219C163.613 67.0219 163.94 67.0887 164.201 67.2225C164.469 67.3535 164.676 67.5173 164.843 67.7145C165.003 67.9091 165.131 68.101 165.211 68.2895H165.298V67.1128H167.21V76.7405H165.271ZM163.84 72.6835C164.154 72.6835 164.422 72.5986 164.636 72.4281C164.856 72.255 165.024 72.0136 165.137 71.7034C165.258 71.3938 165.311 71.0308 165.311 70.6142C165.311 70.1977 165.258 69.836 165.144 69.5291C165.024 69.2222 164.856 68.9849 164.642 68.8177C164.422 68.6506 164.154 68.567 163.84 68.567C163.519 68.567 163.252 68.6539 163.038 68.8271C162.817 69.0002 162.65 69.2403 162.536 69.5472C162.423 69.854 162.369 70.2097 162.369 70.6142C162.369 71.0214 162.423 71.3818 162.536 71.6947C162.65 72.0042 162.817 72.2476 163.038 72.4241C163.252 72.5973 163.519 72.6835 163.84 72.6835Z" fill="#003A40"/>
<path d="M37.5098 94.7076V87.7054H40.0036C40.5452 87.7054 40.9998 87.799 41.3542 87.9862C41.7152 88.1728 41.9826 88.4315 42.1631 88.7618C42.3437 89.0901 42.4306 89.4698 42.4306 89.9004C42.4306 90.329 42.337 90.7061 42.1631 91.0323C41.9826 91.3559 41.7152 91.608 41.3542 91.7878C40.9931 91.9677 40.5452 92.0579 40.0036 92.0579H38.1115V91.1487H39.91C40.251 91.1487 40.5251 91.0992 40.739 91.0016C40.9597 90.9033 41.1134 90.7609 41.2137 90.5743C41.314 90.3871 41.3675 90.1625 41.3675 89.9004C41.3675 89.6363 41.314 89.407 41.2137 89.2131C41.1134 89.0199 40.953 88.8714 40.739 88.7691C40.5251 88.6642 40.2443 88.6114 39.8899 88.6114H38.5661V94.7076H37.5098ZM40.9663 91.5485L42.698 94.7076H41.4945L39.7963 91.5485H40.9663ZM45.8337 94.8132C45.3122 94.8132 44.8709 94.7029 44.4965 94.4816C44.1221 94.2583 43.8347 93.9454 43.6341 93.5415C43.4335 93.1357 43.3332 92.661 43.3332 92.1161C43.3332 91.5779 43.4335 91.1039 43.6341 90.694C43.8347 90.2835 44.1154 89.9633 44.4831 89.7333C44.8442 89.5026 45.2721 89.3876 45.7602 89.3876C46.0543 89.3876 46.3419 89.4364 46.6227 89.5347C46.8968 89.633 47.1508 89.7868 47.3715 89.996C47.5921 90.206 47.766 90.4781 47.893 90.8137C48.02 91.146 48.0868 91.5505 48.0868 92.0272V92.3896H43.9081V91.6234H47.084C47.084 91.3546 47.0305 91.1166 46.9168 90.9093C46.8098 90.6994 46.6561 90.5342 46.4555 90.4132C46.2616 90.2929 46.0276 90.232 45.7668 90.232C45.4794 90.232 45.2253 90.3029 45.0113 90.444C44.8041 90.583 44.6369 90.7656 44.5233 90.9909C44.4096 91.2148 44.3494 91.4575 44.3494 91.7196V92.318C44.3494 92.669 44.4096 92.9672 44.5367 93.2133C44.6637 93.4593 44.8375 93.6478 45.0581 93.7776C45.2787 93.9053 45.5395 93.9688 45.8404 93.9688C46.0343 93.9688 46.2148 93.9414 46.3686 93.8872C46.5291 93.8297 46.6695 93.7455 46.7831 93.6338C46.9035 93.5222 46.9904 93.3844 47.0506 93.2206L48.02 93.3945C47.9398 93.6793 47.7994 93.9293 47.5988 94.1433C47.4049 94.3552 47.1508 94.5204 46.85 94.6394C46.5558 94.7557 46.2148 94.8132 45.8337 94.8132ZM51.7173 89.4558V90.2768H48.7487V89.4558H51.7173ZM49.5645 94.7076V88.8474C49.5645 88.5191 49.638 88.247 49.7784 88.0304C49.9255 87.8117 50.1127 87.6486 50.3467 87.5416C50.5874 87.432 50.8415 87.3771 51.1223 87.3771C51.3295 87.3771 51.5034 87.3945 51.6505 87.4286C51.7976 87.4607 51.9045 87.4901 51.9714 87.5176L51.7374 88.3446C51.6839 88.3312 51.6237 88.3152 51.5502 88.2971C51.4766 88.2764 51.383 88.2664 51.276 88.2664C51.0287 88.2664 50.8481 88.3279 50.7411 88.4509C50.6408 88.5739 50.5874 88.7518 50.5874 88.9844V94.7076H49.5645ZM54.8263 94.8132C54.3115 94.8132 53.8635 94.7029 53.4891 94.4816C53.1214 94.2583 52.8339 93.9454 52.6333 93.5415C52.4327 93.1357 52.3324 92.661 52.3324 92.1161C52.3324 91.5779 52.4327 91.1039 52.6333 90.694C52.8339 90.2835 53.1147 89.9633 53.4757 89.7333C53.8434 89.5026 54.2713 89.3876 54.7594 89.3876C55.0535 89.3876 55.3411 89.4364 55.6152 89.5347C55.896 89.633 56.1434 89.7868 56.364 89.996C56.5913 90.206 56.7652 90.4781 56.8922 90.8137C57.0192 91.146 57.0794 91.5505 57.0794 92.0272V92.3896H52.9074V91.6234H56.0832C56.0832 91.3546 56.0231 91.1166 55.9161 90.9093C55.8091 90.6994 55.6553 90.5342 55.4547 90.4132C55.2608 90.2929 55.0268 90.232 54.7661 90.232C54.4786 90.232 54.2245 90.3029 54.0105 90.444C53.7966 90.583 53.6361 90.7656 53.5225 90.9909C53.4021 91.2148 53.3486 91.4575 53.3486 91.7196V92.318C53.3486 92.669 53.4088 92.9672 53.5359 93.2133C53.6562 93.4593 53.8301 93.6478 54.0574 93.7776C54.278 93.9053 54.5387 93.9688 54.8396 93.9688C55.0335 93.9688 55.2073 93.9414 55.3678 93.8872C55.5283 93.8297 55.6687 93.7455 55.7823 93.6338C55.896 93.5222 55.9896 93.3844 56.0498 93.2206L57.0192 93.3945C56.939 93.6793 56.7986 93.9293 56.598 94.1433C56.4041 94.3552 56.15 94.5204 55.8492 94.6394C55.555 94.7557 55.2141 94.8132 54.8263 94.8132ZM58.216 94.7076V89.4558H59.2055V90.2902H59.259C59.3527 90.0074 59.5264 89.7854 59.7671 89.6236C60.0078 89.4598 60.282 89.3776 60.5895 89.3776C60.6564 89.3776 60.7299 89.3796 60.8168 89.3843C60.9038 89.3889 60.9773 89.3943 61.0241 89.4016V90.3791C60.9839 90.3678 60.9104 90.3551 60.8101 90.3417C60.7032 90.3256 60.5962 90.3176 60.4959 90.3176C60.2485 90.3176 60.0346 90.3691 59.8474 90.4714C59.6602 90.5717 59.5131 90.7121 59.3994 90.8919C59.2925 91.0698 59.239 91.2724 59.239 91.5004V94.7076H58.216ZM63.986 94.8132C63.4711 94.8132 63.0232 94.7029 62.6488 94.4816C62.281 94.2583 61.9935 93.9454 61.7863 93.5415C61.5857 93.1357 61.4854 92.661 61.4854 92.1161C61.4854 91.5779 61.5857 91.1039 61.7863 90.694C61.9935 90.2835 62.2743 89.9633 62.6354 89.7333C63.0031 89.5026 63.4243 89.3876 63.9124 89.3876C64.2133 89.3876 64.5008 89.4364 64.7749 89.5347C65.0557 89.633 65.3031 89.7868 65.5237 89.996C65.7444 90.206 65.9181 90.4781 66.0452 90.8137C66.1789 91.146 66.2391 91.5505 66.2391 92.0272V92.3896H62.0671V91.6234H65.2362C65.2362 91.3546 65.1827 91.1166 65.0758 90.9093C64.9621 90.6994 64.8083 90.5342 64.6144 90.4132C64.4138 90.2929 64.1865 90.232 63.9191 90.232C63.6316 90.232 63.3842 90.3029 63.1703 90.444C62.9563 90.583 62.7959 90.7656 62.6755 90.9909C62.5619 91.2148 62.5084 91.4575 62.5084 91.7196V92.318C62.5084 92.669 62.5686 92.9672 62.6889 93.2133C62.816 93.4593 62.9897 93.6478 63.2104 93.7776C63.4377 93.9053 63.6985 93.9688 63.9993 93.9688C64.1932 93.9688 64.3671 93.9414 64.5275 93.8872C64.688 93.8297 64.8217 93.7455 64.9421 93.6338C65.0557 93.5222 65.1426 93.3844 65.2094 93.2206L66.1723 93.3945C66.0987 93.6793 65.9583 93.9293 65.7577 94.1433C65.5572 94.3552 65.3098 94.5204 65.0089 94.6394C64.708 94.7557 64.367 94.8132 63.986 94.8132ZM68.3986 91.5893V94.7076H67.3757V89.4558H68.3519V90.3109H68.4187C68.5391 90.0328 68.7329 89.8095 68.987 89.641C69.2477 89.4718 69.5753 89.3876 69.9698 89.3876C70.3242 89.3876 70.6384 89.4631 70.9059 89.6136C71.18 89.7613 71.3873 89.9826 71.5344 90.2768C71.6815 90.5703 71.755 90.9341 71.755 91.3673V94.7076H70.732V91.4903C70.732 91.1099 70.6384 90.8124 70.4379 90.5977C70.2373 90.3811 69.9632 90.2735 69.6222 90.2735C69.3815 90.2735 69.1742 90.3243 68.987 90.4273C68.8065 90.5296 68.6594 90.68 68.5524 90.8785C68.4454 91.0744 68.3986 91.3111 68.3986 91.5893ZM75.3386 94.8132C74.8305 94.8132 74.3959 94.6982 74.0282 94.4682C73.6605 94.2356 73.3797 93.9153 73.1858 93.5075C72.9919 93.0996 72.8915 92.6323 72.8915 92.1054C72.8915 91.5726 72.9919 91.1019 73.1925 90.694C73.393 90.2835 73.6739 89.9633 74.0416 89.7333C74.4026 89.5026 74.8372 89.3876 75.3319 89.3876C75.7264 89.3876 76.0808 89.4618 76.395 89.6102C76.7093 89.756 76.9633 89.9612 77.1505 90.2253C77.3444 90.4894 77.458 90.7983 77.4981 91.152H76.502C76.4485 90.906 76.3215 90.694 76.1276 90.5162C75.9337 90.3383 75.6729 90.2494 75.3453 90.2494C75.0645 90.2494 74.8104 90.3243 74.5965 90.4747C74.3892 90.6231 74.2221 90.8351 74.1017 91.1106C73.9814 91.384 73.9212 91.7083 73.9212 92.082C73.9212 92.4645 73.9814 92.7954 74.1017 93.0735C74.2154 93.3517 74.3758 93.5669 74.5898 93.7194C74.8037 93.8725 75.0578 93.9487 75.3453 93.9487C75.5392 93.9487 75.7131 93.9133 75.8735 93.8424C76.034 93.7695 76.1677 93.6659 76.2747 93.5315C76.3816 93.3971 76.4618 93.2353 76.502 93.0461H77.4981C77.458 93.3858 77.3511 93.6886 77.1639 93.9554C76.9833 94.2222 76.736 94.4314 76.4217 94.5845C76.1142 94.737 75.7531 94.8132 75.3386 94.8132ZM80.8545 94.8132C80.333 94.8132 79.8917 94.7029 79.5173 94.4816C79.1429 94.2583 78.8554 93.9454 78.6548 93.5415C78.4542 93.1357 78.354 92.661 78.354 92.1161C78.354 91.5779 78.4542 91.1039 78.6548 90.694C78.8554 90.2835 79.1429 89.9633 79.5039 89.7333C79.865 89.5026 80.2929 89.3876 80.781 89.3876C81.0751 89.3876 81.3627 89.4364 81.6435 89.5347C81.9243 89.633 82.1716 89.7868 82.3923 89.996C82.6129 90.206 82.7868 90.4781 82.9138 90.8137C83.0408 91.146 83.1076 91.5505 83.1076 92.0272V92.3896H78.9289V91.6234H82.1048C82.1048 91.3546 82.0513 91.1166 81.9376 90.9093C81.8306 90.6994 81.6769 90.5342 81.4763 90.4132C81.2824 90.2929 81.0551 90.232 80.7876 90.232C80.5002 90.232 80.2528 90.3029 80.0388 90.444C79.8249 90.583 79.6577 90.7656 79.5441 90.9909C79.4304 91.2148 79.3702 91.4575 79.3702 91.7196V92.318C79.3702 92.669 79.4371 92.9672 79.5575 93.2133C79.6845 93.4593 79.8583 93.6478 80.0789 93.7776C80.3062 93.9053 80.567 93.9688 80.8612 93.9688C81.0551 93.9688 81.2356 93.9414 81.3961 93.8872C81.5565 93.8297 81.6903 93.7455 81.8106 93.6338C81.9243 93.5222 82.0112 93.3844 82.0714 93.2206L83.0408 93.3945C82.9672 93.6793 82.8268 93.9293 82.6263 94.1433C82.4257 94.3552 82.1783 94.5204 81.8775 94.6394C81.5766 94.7557 81.2356 94.8132 80.8545 94.8132ZM88.1756 90.7381L87.2529 90.9019C87.2128 90.7836 87.1526 90.6706 87.0657 90.5637C86.9855 90.4567 86.8718 90.3691 86.7314 90.3002C86.591 90.232 86.4105 90.1979 86.2032 90.1979C85.909 90.1979 85.6684 90.2628 85.4745 90.3932C85.2806 90.5202 85.1869 90.686 85.1869 90.8886C85.1869 91.0644 85.2471 91.2055 85.3809 91.3125C85.5079 91.4194 85.7218 91.5077 86.0093 91.5759L86.845 91.7671C87.3264 91.8788 87.6875 92.0513 87.9215 92.2833C88.1622 92.5159 88.2758 92.8181 88.2758 93.1892C88.2758 93.5041 88.189 93.7843 88.0085 94.0303C87.8279 94.2743 87.5739 94.4662 87.2529 94.6053C86.9253 94.7437 86.5576 94.8132 86.1297 94.8132C85.5413 94.8132 85.0666 94.6882 84.6922 94.4375C84.3178 94.1847 84.0905 93.8257 84.0102 93.3604L84.9998 93.2099C85.06 93.4673 85.187 93.6626 85.3742 93.7949C85.5681 93.9246 85.8154 93.9895 86.123 93.9895C86.4573 93.9895 86.7248 93.92 86.9253 93.7809C87.1259 93.6398 87.2262 93.4673 87.2262 93.2647C87.2262 93.1009 87.166 92.9626 87.0456 92.8509C86.9253 92.7392 86.7381 92.655 86.4841 92.5982L85.6015 92.4029C85.1067 92.2913 84.7457 92.1134 84.5117 91.8701C84.2777 91.626 84.1641 91.3172 84.1641 90.9434C84.1641 90.6332 84.2509 90.3624 84.4247 90.1297C84.5986 89.8971 84.8326 89.7159 85.1402 89.5862C85.4477 89.4538 85.7954 89.3876 86.1898 89.3876C86.7581 89.3876 87.2061 89.5106 87.527 89.7567C87.8546 90.0007 88.0686 90.3276 88.1756 90.7381ZM90.0744 94.7724C89.8872 94.7724 89.7267 94.7062 89.593 94.5745C89.4593 94.4395 89.3924 94.2777 89.3924 94.0884C89.3924 93.9019 89.4593 93.7421 89.593 93.6098C89.7267 93.4754 89.8872 93.4085 90.0744 93.4085C90.2616 93.4085 90.422 93.4754 90.5557 93.6098C90.6895 93.7421 90.7631 93.9019 90.7631 94.0884C90.7631 94.2141 90.7296 94.3291 90.6627 94.4341C90.6026 94.5364 90.5223 94.6186 90.4154 94.6802C90.3151 94.7417 90.2014 94.7724 90.0744 94.7724ZM90.0744 90.9501C89.8872 90.9501 89.7267 90.8826 89.593 90.7482C89.4593 90.6138 89.3924 90.4533 89.3924 90.2661C89.3924 90.0796 89.4593 89.9198 89.593 89.7874C89.7267 89.653 89.8872 89.5862 90.0744 89.5862C90.2616 89.5862 90.422 89.653 90.5557 89.7874C90.6895 89.9198 90.7631 90.0796 90.7631 90.2661C90.7631 90.3918 90.7296 90.5068 90.6627 90.6118C90.6026 90.7141 90.5223 90.7963 90.4154 90.8578C90.3151 90.9193 90.2014 90.9501 90.0744 90.9501ZM99.4948 89.9178C99.4346 89.7105 99.341 89.5247 99.234 89.3602C99.1204 89.1937 98.9934 89.0526 98.8396 88.9363C98.6858 88.818 98.512 88.7277 98.3181 88.6662C98.1242 88.6047 97.9103 88.5739 97.6763 88.5739C97.2818 88.5739 96.9275 88.6755 96.6065 88.8781C96.2923 89.0814 96.0382 89.3782 95.8577 89.7707C95.6772 90.1605 95.5836 90.6379 95.5836 91.2028C95.5836 91.7705 95.6772 92.2505 95.8577 92.6423C96.0449 93.0348 96.299 93.3323 96.6199 93.5349C96.9408 93.7375 97.3085 93.8391 97.7163 93.8391C98.0974 93.8391 98.4317 93.7615 98.7125 93.6064C98.9933 93.452 99.214 93.2327 99.3745 92.9505C99.5283 92.665 99.6085 92.3301 99.6085 91.945L99.8826 91.9964H97.8768V91.1246H100.631V91.9209C100.631 92.5093 100.504 93.02 100.25 93.4526C100.003 93.8839 99.6619 94.2162 99.2207 94.4508C98.7861 94.6862 98.2846 94.8032 97.7163 94.8032C97.0812 94.8032 96.5262 94.6574 96.0515 94.3659C95.5702 94.0737 95.2025 93.6599 94.9351 93.1243C94.6676 92.5868 94.5338 91.9483 94.5338 91.2102C94.5338 90.6512 94.6141 90.1498 94.7679 89.7058C94.9217 89.2612 95.1356 88.8841 95.4164 88.5739C95.7039 88.2617 96.0315 88.0237 96.4126 87.8592C96.7937 87.6927 97.2149 87.6098 97.6696 87.6098C98.044 87.6098 98.3983 87.666 98.7259 87.7776C99.0535 87.8893 99.3477 88.0477 99.6018 88.2523C99.8559 88.4576 100.07 88.7016 100.237 88.9844C100.411 89.2646 100.524 89.5755 100.585 89.9178H99.4948ZM101.969 94.7076V87.7054H104.469C105.011 87.7054 105.459 87.799 105.82 87.9862C106.174 88.1728 106.448 88.4315 106.622 88.7618C106.803 89.0901 106.889 89.4698 106.889 89.9004C106.889 90.329 106.803 90.7061 106.622 91.0323C106.441 91.3559 106.174 91.608 105.813 91.7878C105.459 91.9677 105.004 92.0579 104.462 92.0579H102.57V91.1487H104.369C104.71 91.1487 104.991 91.0992 105.205 91.0016C105.419 90.9033 105.579 90.7609 105.679 90.5743C105.78 90.3871 105.826 90.1625 105.826 89.9004C105.826 89.6363 105.773 89.407 105.673 89.2131C105.572 89.0199 105.412 88.8714 105.198 88.7691C104.984 88.6642 104.703 88.6114 104.355 88.6114H103.025V94.7076H101.969ZM105.425 91.5485L107.157 94.7076H105.953L104.255 91.5485H105.425ZM109.23 87.7054V94.7076H108.173V87.7054H109.23ZM115.661 94.8032C115.193 94.8032 114.772 94.7223 114.404 94.5605C114.037 94.3987 113.742 94.174 113.529 93.8872C113.321 93.5977 113.208 93.2627 113.188 92.8816H114.264C114.277 93.0889 114.344 93.2694 114.471 93.4219C114.598 93.5723 114.765 93.6886 114.973 93.7709C115.173 93.8531 115.401 93.8939 115.655 93.8939C115.929 93.8939 116.176 93.8458 116.383 93.7502C116.597 93.6545 116.765 93.5215 116.892 93.3503C117.012 93.1772 117.072 92.9773 117.072 92.7519C117.072 92.5173 117.012 92.3107 116.892 92.1328C116.771 91.953 116.597 91.8119 116.363 91.7089C116.136 91.6066 115.862 91.5552 115.541 91.5552H114.946V90.694H115.541C115.795 90.694 116.022 90.6472 116.223 90.5536C116.417 90.46 116.577 90.3303 116.684 90.1638C116.798 89.9953 116.851 89.7981 116.851 89.5721C116.851 89.3555 116.805 89.1676 116.704 89.0085C116.611 88.846 116.477 88.7197 116.297 88.6287C116.123 88.5378 115.915 88.4917 115.675 88.4917C115.447 88.4917 115.233 88.5338 115.033 88.6187C114.839 88.7003 114.679 88.8193 114.558 88.9737C114.431 89.1268 114.364 89.31 114.358 89.5247H113.335C113.348 89.1462 113.462 88.8133 113.669 88.5258C113.883 88.239 114.17 88.0143 114.518 87.8525C114.872 87.6907 115.26 87.6098 115.688 87.6098C116.136 87.6098 116.524 87.6974 116.851 87.8732C117.179 88.0464 117.433 88.2777 117.607 88.5672C117.787 88.8567 117.881 89.1737 117.874 89.5173C117.881 89.9098 117.767 90.2427 117.547 90.5162C117.326 90.7896 117.039 90.9728 116.671 91.0664V91.1212C117.139 91.1915 117.5 91.3767 117.754 91.6748C118.008 91.9737 118.142 92.3441 118.135 92.786C118.142 93.1711 118.028 93.5168 117.814 93.8224C117.6 94.1272 117.306 94.3679 116.938 94.5431C116.564 94.7169 116.143 94.8032 115.661 94.8032ZM121.866 94.8239C121.324 94.8212 120.863 94.6788 120.482 94.3967C120.101 94.1139 119.807 93.7027 119.606 93.1625C119.399 92.6222 119.298 91.971 119.298 91.2102C119.298 90.4506 119.399 89.8028 119.606 89.2646C119.807 88.7264 120.101 88.3165 120.482 88.0337C120.87 87.7509 121.331 87.6098 121.866 87.6098C122.401 87.6098 122.862 87.7522 123.243 88.037C123.624 88.3198 123.918 88.7304 124.126 89.2679C124.326 89.8035 124.433 90.4506 124.433 91.2102C124.433 91.9737 124.326 92.6256 124.126 93.1658C123.925 93.7034 123.631 94.1152 123.25 94.4C122.862 94.6822 122.407 94.8239 121.866 94.8239ZM121.866 93.9106C122.341 93.9106 122.708 93.6793 122.976 93.2166C123.243 92.754 123.384 92.0854 123.384 91.2102C123.384 90.6285 123.317 90.1378 123.196 89.7366C123.076 89.3328 122.902 89.0272 122.675 88.82C122.448 88.6107 122.18 88.5057 121.866 88.5057C121.398 88.5057 121.023 88.7384 120.756 89.2031C120.489 89.6677 120.348 90.337 120.348 91.2102C120.348 91.7932 120.408 92.2866 120.529 92.6904C120.656 93.0916 120.83 93.3958 121.05 93.6031C121.277 93.8083 121.552 93.9106 121.866 93.9106ZM125.643 94.7076V93.9414L128.01 91.487C128.264 91.2202 128.472 90.9869 128.639 90.7863C128.806 90.583 128.926 90.3905 129.013 90.208C129.093 90.0261 129.133 89.8322 129.133 89.627C129.133 89.3943 129.08 89.1937 128.973 89.0252C128.859 88.8541 128.712 88.723 128.525 88.6321C128.331 88.5385 128.117 88.4917 127.883 88.4917C127.629 88.4917 127.415 88.5432 127.228 88.6455C127.041 88.7484 126.894 88.8928 126.793 89.08C126.693 89.2666 126.646 89.4859 126.646 89.7366H125.637C125.637 89.31 125.737 88.9376 125.931 88.6187C126.125 88.2991 126.399 88.0518 126.74 87.8766C127.081 87.6987 127.469 87.6098 127.903 87.6098C128.344 87.6098 128.732 87.6974 129.067 87.8732C129.401 88.0464 129.668 88.2831 129.856 88.5839C130.043 88.8828 130.136 89.2204 130.136 89.5962C130.136 89.8563 130.09 90.1103 129.989 90.3584C129.896 90.6071 129.728 90.8839 129.488 91.1894C129.247 91.4923 128.919 91.8607 128.492 92.294L127.101 93.7502V93.8016H130.25V94.7076H125.643ZM134.656 90.7622V91.6508H131.554V90.7622H134.656ZM138.661 87.7054V94.7076H137.598V88.7651H137.558L135.886 89.8596V88.8474L137.631 87.7054H138.661Z" fill="#709C9B"/>
</g>
<defs>
<filter id="filter0_d_0_1" x="0.56998" y="122.922" width="386.713" height="274.122" filterUnits="userSpaceOnUse" color-interpolation-filters="sRGB">
<feFlood flood-opacity="0" result="BackgroundImageFix"/>
<feColorMatrix in="SourceAlpha" type="matrix" values="0 0 0 0 0 0 0 0 0 0 0 0 0 0 0 0 0 0 127 0" result="hardAlpha"/>
<feOffset dx="4.01155" dy="4.01155"/>
<feGaussianBlur stdDeviation="7.22078"/>
<feComposite in2="hardAlpha" operator="out"/>
<feColorMatrix type="matrix" values="0 0 0 0 0 0 0 0 0 0.227451 0 0 0 0 0.25098 0 0 0 0.12 0"/>
<feBlend mode="normal" in2="BackgroundImageFix" result="effect1_dropShadow_0_1"/>
<feBlend mode="normal" in="SourceGraphic" in2="effect1_dropShadow_0_1" result="shape"/>
</filter>
<filter id="filter1_d_0_1" x="0.636875" y="0.56998" width="273.32" height="135.189" filterUnits="userSpaceOnUse" color-interpolation-filters="sRGB">
<feFlood flood-opacity="0" result="BackgroundImageFix"/>
<feColorMatrix in="SourceAlpha" type="matrix" values="0 0 0 0 0 0 0 0 0 0 0 0 0 0 0 0 0 0 127 0" result="hardAlpha"/>
<feOffset dx="4.01155" dy="4.01155"/>
<feGaussianBlur stdDeviation="7.22078"/>
<feComposite in2="hardAlpha" operator="out"/>
<feColorMatrix type="matrix" values="0 0 0 0 0 0 0 0 0 0.227451 0 0 0 0 0.25098 0 0 0 0.12 0"/>
<feBlend mode="normal" in2="BackgroundImageFix" result="effect1_dropShadow_0_1"/>
<feBlend mode="normal" in="SourceGraphic" in2="effect1_dropShadow_0_1" result="shape"/>
</filter>
</defs>
</svg>
