<svg width="103" height="29" viewBox="0 0 103 29" fill="none" xmlns="http://www.w3.org/2000/svg">
<path fill-rule="evenodd" clip-rule="evenodd" d="M29.7661 7.06899C28.1964 5.71488 26.2841 5.02954 24.0843 5.02954C23.1945 5.02954 22.3157 5.15666 21.4756 5.40537L21.2822 5.46064L21.1882 5.28378C20.9948 4.93006 20.7958 4.59291 20.5858 4.27235C19.298 2.32685 17.0209 0 13.4394 0C8.11691 0 5.09366 4.79188 3.49636 8.80999C1.85485 12.9221 0.871052 18.3661 0.837891 23.4233H4.75098C4.78415 18.8414 5.66846 13.939 7.12758 10.2636C8.78014 6.11283 10.9633 3.91862 13.4339 3.91862C14.9096 3.91862 16.2084 4.76425 17.3027 6.42786C17.463 6.67105 17.6122 6.92529 17.7559 7.19611L17.8499 7.37297L17.6952 7.50562C17.4299 7.73223 17.1701 7.97541 16.9214 8.22966C15.2522 9.92091 13.9037 12.2422 13.1188 14.757C12.345 17.2386 12.1903 19.6594 12.6877 21.5662C12.9917 22.749 13.5389 23.7052 14.3016 24.4071C15.1804 25.214 16.3134 25.6396 17.5846 25.6396C20.8566 25.6396 22.2881 22.6606 22.8518 20.8809C23.5814 18.5817 23.7693 15.6358 23.3879 12.5794C23.2498 11.485 23.0397 10.4073 22.7689 9.37926L22.7026 9.12502L22.9568 9.06975C23.3271 8.99238 23.703 8.94816 24.0788 8.94816C25.3334 8.94816 26.3559 9.30741 27.2071 10.037C28.0251 10.7444 28.7159 11.8222 29.2576 13.2481C30.1916 15.6966 30.6669 19.1178 30.6891 23.4233H34.6021C34.5856 18.6369 34.0163 14.7459 32.9164 11.8553C32.1482 9.81589 31.087 8.20202 29.7661 7.06899ZM19.2261 19.7423C18.6458 21.5718 17.861 21.7155 17.5901 21.7155C17.2198 21.7155 17.0596 21.6049 16.9545 21.511C16.844 21.4059 16.6284 21.1462 16.4792 20.5714C16.1752 19.3941 16.1918 17.6476 16.7335 15.9066C17.1922 14.4254 18.0268 13.0381 18.9056 11.8996L19.2482 11.4519L19.3477 12.0046C19.4085 12.3528 19.4638 12.701 19.508 13.0602C19.8507 15.9398 19.7788 18.0013 19.2261 19.7423Z" fill="#073ED9"/>
<path d="M54.3775 18.3273L58.7439 5.71478H62.3806L64.9285 23.4177H61.0485L59.6171 12.8667H59.4955L55.8367 23.4177H52.8078L49.1436 12.8722H49.0219L47.5905 23.4232H43.7104L46.2584 5.72031H49.8731L54.2614 18.3329H54.3775V18.3273ZM70.6765 14.3756C69.9967 15.0554 69.6596 15.9286 69.6596 16.9953C69.6596 18.0621 69.9967 18.9353 70.6765 19.6151C71.3563 20.2949 72.1909 20.6321 73.1747 20.6321C74.1585 20.6321 74.9931 20.2949 75.6729 19.6151C76.3527 18.9353 76.69 18.0621 76.69 16.9953C76.69 15.9286 76.3527 15.0554 75.6729 14.3756C74.9931 13.6957 74.1585 13.3586 73.1747 13.3586C72.1909 13.3586 71.3563 13.6957 70.6765 14.3756ZM78.3646 12.1206C79.6744 13.3973 80.3266 15.0222 80.3266 16.9953C80.3266 18.9685 79.6744 20.5934 78.3646 21.8701C77.0547 23.1469 75.3247 23.788 73.1747 23.788C71.0247 23.788 69.2949 23.1469 67.985 21.8701C66.6751 20.5934 66.0228 18.9685 66.0228 16.9953C66.0228 15.0222 66.6806 13.3973 67.985 12.1206C69.2949 10.8438 71.0247 10.2027 73.1747 10.2027C75.3247 10.2027 77.0547 10.8438 78.3646 12.1206ZM85.8978 10.4459V23.5172C85.8978 25.2139 85.4446 26.5349 84.5382 27.469C83.6483 28.4251 82.4048 28.9336 80.802 28.9944L80.0725 25.844C81.609 25.7169 82.3771 24.9376 82.3771 23.5172V10.4459C82.8635 10.6062 83.4438 10.6891 84.1236 10.6891C84.4331 10.6891 84.7316 10.6725 85.019 10.6393C85.323 10.5896 85.5442 10.5509 85.6713 10.5177L85.8978 10.4459ZM82.6978 8.11901C82.3274 7.76528 82.1396 7.28444 82.1396 6.68752C82.1396 6.09061 82.3274 5.62082 82.6978 5.28368C83.0681 4.92995 83.5488 4.74756 84.1292 4.74756C84.7261 4.74756 85.2125 4.92442 85.5828 5.28368C85.9532 5.62082 86.141 6.09061 86.141 6.68752C86.141 7.28444 85.9532 7.76528 85.5828 8.11901C85.2125 8.45615 84.7261 8.62749 84.1292 8.62749C83.5433 8.62749 83.0681 8.45615 82.6978 8.11901ZM92.6186 14.3756C91.9389 15.0554 91.6017 15.9286 91.6017 16.9953C91.6017 18.0621 91.9389 18.9353 92.6186 19.6151C93.2984 20.2949 94.133 20.6321 95.1168 20.6321C96.1006 20.6321 96.9351 20.2949 97.615 19.6151C98.2948 18.9353 98.6319 18.0621 98.6319 16.9953C98.6319 15.9286 98.2948 15.0554 97.615 14.3756C96.9351 13.6957 96.1006 13.3586 95.1168 13.3586C94.133 13.3586 93.2984 13.6957 92.6186 14.3756ZM100.307 12.1206C101.617 13.3973 102.269 15.0222 102.269 16.9953C102.269 18.9685 101.617 20.5934 100.307 21.8701C98.9968 23.1469 97.2668 23.788 95.1168 23.788C92.9668 23.788 91.2369 23.1469 89.927 21.8701C88.6172 20.5934 87.9649 18.9685 87.9649 16.9953C87.9649 15.0222 88.6227 13.3973 89.927 12.1206C91.2369 10.8438 92.9668 10.2027 95.1168 10.2027C97.2668 10.2027 98.9968 10.8438 100.307 12.1206Z" fill="#000928"/>
</svg>
