<svg width="97" height="44" viewBox="0 0 97 44" fill="none" xmlns="http://www.w3.org/2000/svg">
<g clip-path="url(#clip0_2_5378)">
<path d="M0.019043 18.0819H18.1187V0H0.019043V18.0819Z" fill="#46CCA0"/>
<path d="M15.4485 7.69296L5.18259 15.1432L6.68059 10.5387L2.75928 7.69296H7.60621L9.1039 3.08813L10.6016 7.69296H15.4485ZM9.10427 12.2978L11.9079 11.7086L13.025 15.1432L9.10427 12.2978Z" fill="white"/>
<path d="M20.0205 18.0819H38.1202V0H20.0205V18.0819Z" fill="#46CCA0"/>
<path d="M20.0205 18.0819H29.0703V0H20.0205V18.0819Z" fill="#46CCA0"/>
<path d="M29.2871 12.2276L31.6912 11.7086L32.8032 15.2211L29.0329 12.41L25.1156 15.2211L26.6361 10.5999L22.6558 7.74386H27.5755L29.0953 3.12231L30.6157 7.74386H35.5352L29.2871 12.2276Z" fill="white"/>
<path d="M40.0361 18.0819H58.1358V0H40.0361V18.0819Z" fill="#46CCA0"/>
<path d="M40.0361 18.0819H49.086V0H40.0361V18.0819Z" fill="#46CCA0"/>
<path d="M55.4661 7.69296L45.2002 15.1432L46.6982 10.5387L42.7769 7.69296H47.6238L49.1215 3.08813L50.6192 7.69296L55.4661 7.69296ZM49.1219 12.2978L51.9255 11.7086L53.0425 15.1432L49.1219 12.2978Z" fill="white"/>
<path d="M60.0513 18.0819H78.151V0H60.0513V18.0819Z" fill="#46CCA0"/>
<path d="M60.0513 18.0819H69.1011V0H60.0513V18.0819Z" fill="#46CCA0"/>
<path d="M75.4803 7.69296L65.2146 15.1432L66.7123 10.5387L62.791 7.69296H67.638L69.1356 3.08813L70.6333 7.69296L75.4803 7.69296ZM69.136 12.2978L71.9397 11.7086L73.0567 15.1432L69.136 12.2978Z" fill="white"/>
<path d="M80.0527 18.0819H98.1524V0H80.0527V18.0819Z" fill="#DCDCE6"/>
<path d="M80.0527 18.0819H89.1026V0H80.0527V18.0819Z" fill="#46CCA0"/>
<path d="M95.4817 7.69296L85.2161 15.1432L86.7138 10.5387L82.7925 7.69296H87.6394L89.1371 3.08813L90.6348 7.69296H95.4817ZM89.1375 12.2978L91.9411 11.7086L93.0582 15.1432L89.1375 12.2978Z" fill="white"/>
</g>
<g clip-path="url(#clip1_2_5378)">
<path d="M30.01 30.978H38.0966V32.4783H34.9169V40.912H33.1685V32.4783H30.0029V30.978H30.01ZM37.7511 33.7192H39.2458V35.1073H39.274C39.3233 34.911 39.415 34.7217 39.5489 34.5394C39.6829 34.3571 39.845 34.1819 40.0354 34.0346C40.2257 33.8804 40.4373 33.7612 40.6699 33.6631C40.9026 33.5719 41.1423 33.5229 41.382 33.5229C41.5653 33.5229 41.6992 33.5299 41.7697 33.5369C41.8402 33.5439 41.9108 33.5579 41.9883 33.5649V35.0932C41.8755 35.0722 41.7627 35.0582 41.6428 35.0442C41.523 35.0301 41.4102 35.0231 41.2974 35.0231C41.0295 35.0231 40.7757 35.0792 40.536 35.1844C40.2962 35.2895 40.0918 35.4508 39.9155 35.6541C39.7393 35.8644 39.5983 36.1168 39.4925 36.4253C39.3868 36.7337 39.3374 37.0842 39.3374 37.4839V40.905H37.7441V33.7192L37.7511 33.7192ZM49.3135 40.912H47.7483V39.9095H47.7201C47.5227 40.2741 47.2337 40.5615 46.8459 40.7788C46.4581 40.9962 46.0633 41.1083 45.6615 41.1083C44.7097 41.1083 44.0188 40.877 43.5958 40.4073C43.1727 39.9376 42.9612 39.2295 42.9612 38.2831V33.7192H44.5546V38.1288C44.5546 38.7598 44.6744 39.2085 44.9212 39.4678C45.1609 39.7272 45.5064 39.8604 45.9435 39.8604C46.2819 39.8604 46.5568 39.8114 46.7825 39.7062C47.0081 39.601 47.1914 39.4678 47.3253 39.2926C47.4663 39.1243 47.565 38.914 47.6285 38.6757C47.6919 38.4373 47.7201 38.1779 47.7201 37.8975V33.7262H49.3135V40.912ZM52.0278 38.6055C52.0772 39.0682 52.2534 39.3907 52.5566 39.58C52.8668 39.7623 53.2334 39.8604 53.6635 39.8604C53.8115 39.8604 53.9807 39.8464 54.1711 39.8254C54.3614 39.8044 54.5447 39.7553 54.7069 39.6922C54.8761 39.6291 55.0101 39.5309 55.1229 39.4048C55.2286 39.2786 55.278 39.1173 55.2709 38.914C55.2639 38.7107 55.1863 38.5424 55.0453 38.4163C54.9043 38.2831 54.7281 38.1849 54.5095 38.1008C54.2909 38.0237 54.0442 37.9536 53.7622 37.8975C53.4802 37.8414 53.1982 37.7783 52.9091 37.7152C52.613 37.6521 52.3239 37.568 52.049 37.4768C51.774 37.3857 51.5272 37.2595 51.3087 37.0983C51.0901 36.944 50.9139 36.7407 50.787 36.4954C50.653 36.25 50.5896 35.9485 50.5896 35.584C50.5896 35.1914 50.6883 34.8689 50.8786 34.6025C51.069 34.3361 51.3157 34.1258 51.6048 33.9645C51.9009 33.8033 52.2252 33.6911 52.5848 33.621C52.9443 33.5579 53.2898 33.5229 53.6141 33.5229C53.9878 33.5229 54.3473 33.5649 54.6857 33.6421C55.0242 33.7192 55.3344 33.8454 55.6093 34.0276C55.8843 34.2029 56.1099 34.4342 56.2932 34.7147C56.4765 34.9951 56.5893 35.3386 56.6387 35.7382H54.9748C54.8973 35.3596 54.7281 35.1003 54.4531 34.9741C54.1781 34.8409 53.8609 34.7778 53.5084 34.7778C53.3956 34.7778 53.2616 34.7848 53.1065 34.8058C52.9514 34.8268 52.8104 34.8619 52.6694 34.911C52.5354 34.96 52.4226 35.0372 52.3239 35.1353C52.2323 35.2335 52.1829 35.3596 52.1829 35.5209C52.1829 35.7172 52.2534 35.8714 52.3874 35.9906C52.5213 36.1098 52.6976 36.2079 52.9161 36.2921C53.1347 36.3692 53.3815 36.4393 53.6635 36.4954C53.9455 36.5514 54.2345 36.6145 54.5306 36.6776C54.8197 36.7407 55.1017 36.8249 55.3837 36.916C55.6657 37.0071 55.9125 37.1333 56.131 37.2946C56.3496 37.4558 56.5259 37.6521 56.6598 37.8905C56.7938 38.1288 56.8643 38.4303 56.8643 38.7808C56.8643 39.2085 56.7656 39.566 56.5682 39.8674C56.3708 40.1619 56.1169 40.4073 55.8067 40.5895C55.4965 40.7718 55.144 40.912 54.7633 40.9962C54.3826 41.0803 54.0019 41.1223 53.6282 41.1223C53.17 41.1223 52.7469 41.0733 52.3592 40.9681C51.9714 40.863 51.633 40.7087 51.351 40.5054C51.069 40.2951 50.8434 40.0357 50.6812 39.7272C50.5191 39.4188 50.4345 39.0472 50.4204 38.6196H52.0278V38.6055ZM57.2873 33.7192H58.4929V31.5599H60.0862V33.7192H61.5245V34.904H60.0862V38.7458C60.0862 38.914 60.0933 39.0542 60.1074 39.1804C60.1215 39.2996 60.1567 39.4048 60.2061 39.4889C60.2554 39.573 60.333 39.6361 60.4387 39.6782C60.5445 39.7202 60.6784 39.7413 60.8617 39.7413C60.9745 39.7413 61.0873 39.7413 61.2002 39.7342C61.313 39.7272 61.4258 39.7132 61.5386 39.6852V40.912C61.3623 40.9331 61.1861 40.9471 61.0239 40.9681C60.8547 40.9891 60.6855 40.9962 60.5092 40.9962C60.0862 40.9962 59.7478 40.9541 59.494 40.877C59.2402 40.7999 59.0357 40.6807 58.8947 40.5264C58.7467 40.3722 58.655 40.1829 58.5986 39.9516C58.5493 39.7202 58.514 39.4538 58.507 39.1594V34.918H57.3014V33.7192H57.2873ZM62.6525 33.7192H64.1612V34.6936H64.1894C64.4151 34.273 64.7253 33.9786 65.1271 33.7963C65.529 33.614 65.959 33.5229 66.4314 33.5229C67.0025 33.5229 67.496 33.621 67.919 33.8243C68.342 34.0206 68.6945 34.294 68.9765 34.6446C69.2586 34.9951 69.463 35.4017 69.604 35.8644C69.745 36.3271 69.8155 36.8249 69.8155 37.3506C69.8155 37.8344 69.7521 38.3041 69.6252 38.7528C69.4983 39.2085 69.3079 39.6081 69.0541 39.9586C68.8003 40.3091 68.476 40.5825 68.0812 40.7928C67.6864 41.0032 67.2281 41.1083 66.6923 41.1083C66.4596 41.1083 66.227 41.0873 65.9943 41.0452C65.7616 41.0032 65.536 40.9331 65.3245 40.8419C65.113 40.7508 64.9086 40.6316 64.7323 40.4844C64.549 40.3372 64.401 40.1689 64.274 39.9796H64.2458V43.569H62.6525V33.7192ZM68.2222 37.3226C68.2222 37.0001 68.1799 36.6846 68.0953 36.3762C68.0107 36.0677 67.8838 35.8013 67.7146 35.563C67.5453 35.3246 67.3338 35.1353 67.0871 34.9951C66.8333 34.8549 66.5442 34.7778 66.2199 34.7778C65.5501 34.7778 65.0425 35.0091 64.7041 35.4718C64.3657 35.9345 64.1965 36.5514 64.1965 37.3226C64.1965 37.6872 64.2388 38.0237 64.3305 38.3321C64.4221 38.6406 64.549 38.907 64.7323 39.1313C64.9086 39.3557 65.1201 39.5309 65.3668 39.6571C65.6136 39.7903 65.9026 39.8534 66.227 39.8534C66.5936 39.8534 66.8967 39.7763 67.1505 39.6291C67.4043 39.4819 67.6088 39.2856 67.771 39.0542C67.9331 38.8159 68.053 38.5495 68.1235 38.248C68.1869 37.9465 68.2222 37.6381 68.2222 37.3226ZM71.0352 30.978H72.6286V32.4783H71.0352V30.978ZM71.0352 33.7192H72.6286V40.912H71.0352V33.7192ZM74.0527 30.978H75.6461V40.912H74.0527V30.978ZM80.5319 41.1083C79.9537 41.1083 79.4391 41.0102 78.9879 40.8209C78.5366 40.6316 78.1559 40.3652 77.8387 40.0357C77.5285 39.6992 77.2887 39.2996 77.1266 38.8369C76.9644 38.3742 76.8798 37.8624 76.8798 37.3086C76.8798 36.7618 76.9644 36.257 77.1266 35.7943C77.2888 35.3316 77.5285 34.932 77.8387 34.5955C78.1489 34.259 78.5366 33.9996 78.9879 33.8103C79.4391 33.621 79.9537 33.5229 80.5319 33.5229C81.11 33.5229 81.6246 33.621 82.0759 33.8103C82.5271 33.9996 82.9078 34.266 83.225 34.5955C83.5352 34.932 83.775 35.3316 83.9371 35.7943C84.0993 36.257 84.1839 36.7618 84.1839 37.3086C84.1839 37.8624 84.0993 38.3742 83.9371 38.8369C83.775 39.2996 83.5352 39.6992 83.225 40.0357C82.9148 40.3722 82.5271 40.6316 82.0759 40.8209C81.6246 41.0102 81.11 41.1083 80.5319 41.1083ZM80.5319 39.8534C80.8844 39.8534 81.1946 39.7763 81.4554 39.6291C81.7163 39.4819 81.9278 39.2856 82.097 39.0472C82.2662 38.8089 82.3861 38.5354 82.4707 38.234C82.5482 37.9325 82.5905 37.6241 82.5905 37.3086C82.5905 37.0001 82.5482 36.6987 82.4707 36.3902C82.3931 36.0817 82.2662 35.8153 82.097 35.577C81.9278 35.3386 81.7163 35.1493 81.4554 35.0021C81.1946 34.8549 80.8844 34.7778 80.5319 34.7778C80.1793 34.7778 79.8691 34.8549 79.6083 35.0021C79.3474 35.1493 79.1359 35.3456 78.9667 35.577C78.7975 35.8153 78.6776 36.0817 78.593 36.3902C78.5155 36.6987 78.4732 37.0001 78.4732 37.3086C78.4732 37.6241 78.5155 37.9325 78.593 38.234C78.6706 38.5354 78.7975 38.8089 78.9667 39.0472C79.1359 39.2856 79.3474 39.4819 79.6083 39.6291C79.8691 39.7833 80.1793 39.8534 80.5319 39.8534ZM84.6492 33.7192H85.8548V31.5599H87.4481V33.7192H88.8864V34.904H87.4481V38.7458C87.4481 38.914 87.4552 39.0542 87.4693 39.1804C87.4834 39.2996 87.5186 39.4048 87.568 39.4889C87.6173 39.573 87.6949 39.6361 87.8006 39.6782C87.9064 39.7202 88.0403 39.7413 88.2236 39.7413C88.3364 39.7413 88.4492 39.7413 88.5621 39.7342C88.6749 39.7272 88.7877 39.7132 88.9005 39.6852V40.912C88.7242 40.9331 88.548 40.9471 88.3858 40.9681C88.2166 40.9891 88.0474 40.9962 87.8711 40.9962C87.4481 40.9962 87.1097 40.9541 86.8559 40.877C86.6021 40.7999 86.3976 40.6807 86.2566 40.5264C86.1086 40.3722 86.0169 40.1829 85.9605 39.9516C85.9112 39.7202 85.8759 39.4538 85.8689 39.1594V34.918H84.6633V33.7192L84.6492 33.7192Z" fill="#191919"/>
<path d="M28.1487 30.9779H20.8447L18.5886 24.0654L16.3255 30.9779L9.02148 30.9709L14.9366 35.2473L12.6735 42.1527L18.5886 37.8833L24.4967 42.1527L22.2406 35.2473L28.1487 30.9779Z" fill="#46CCA0"/>
<path d="M22.7485 36.8107L22.2409 35.2473L18.5889 37.8833L22.7485 36.8107Z" fill="#005128"/>
</g>
<defs>
<clipPath id="clip0_2_5378">
<rect width="98" height="17.9531" fill="white"/>
</clipPath>
<clipPath id="clip1_2_5378">
<rect width="80" height="19.6719" fill="white" transform="translate(9 23.9531)"/>
</clipPath>
</defs>
</svg>
